<svg width="952" height="188" viewBox="0 0 952 188" fill="none" xmlns="http://www.w3.org/2000/svg">
<rect x="5.50797" y="5.5" width="257" height="177" rx="26.5273" fill="#FBFCFE"/>
<rect x="5.50797" y="5.5" width="257" height="177" rx="26.5273" stroke="#191B1F" stroke-width="11"/>
<path d="M76.7549 145.825C56.5169 145.825 46.398 133.538 46.398 108.782V52.9474H64.1062V106.072C64.1062 123.238 71.334 131.369 84.1634 131.369C100.219 131.369 108.377 122.445 108.377 110.017V52.9474H126.085V143.295H108.377V127.799H107.835C100.719 137.434 92.7246 145.825 76.7549 145.825Z" fill="#191B1F"/>
<path d="M190.395 50.4011C210.632 50.4011 220.751 62.6884 220.751 87.4438L220.751 143.279L203.043 143.279L203.043 90.1542C203.043 72.9881 195.815 64.8568 182.986 64.8568C166.93 64.8568 158.773 73.7812 158.773 86.2091L158.773 143.279L141.065 143.279L141.065 52.9309L158.773 52.9309L158.773 68.427L159.315 68.427C166.43 58.7918 174.425 50.4011 190.395 50.4011Z" fill="#191B1F"/>
<path d="M287.508 51.2438C287.508 42.1845 287.512 35.7208 287.926 30.6561C288.335 25.6556 289.115 22.5051 290.399 19.9842C292.943 14.9927 297.001 10.9346 301.992 8.39131C304.513 7.10683 307.664 6.32664 312.664 5.91808C317.729 5.50428 324.192 5.5 333.252 5.5H544.764C553.823 5.5 560.287 5.50428 565.352 5.91808C570.352 6.32664 573.503 7.10683 576.024 8.39131C581.015 10.9346 585.073 14.9927 587.617 19.9842C588.901 22.5051 589.681 25.6556 590.09 30.6561C590.504 35.7208 590.508 42.1845 590.508 51.2438V136.756C590.508 145.815 590.504 152.279 590.09 157.344C589.681 162.344 588.901 165.495 587.617 168.016C585.073 173.007 581.015 177.065 576.024 179.609C573.503 180.893 570.352 181.673 565.352 182.082C560.287 182.496 553.823 182.5 544.764 182.5H333.252C324.192 182.5 317.729 182.496 312.664 182.082C307.664 181.673 304.513 180.893 301.992 179.609C297.001 177.065 292.943 173.007 290.399 168.016C289.115 165.495 288.335 162.344 287.926 157.344C287.512 152.279 287.508 145.815 287.508 136.756V51.2438Z" fill="#FBFCFE"/>
<path d="M287.508 51.2438C287.508 42.1845 287.512 35.7208 287.926 30.6561C288.335 25.6556 289.115 22.5051 290.399 19.9842C292.943 14.9927 297.001 10.9346 301.992 8.39131C304.513 7.10683 307.664 6.32664 312.664 5.91808C317.729 5.50428 324.192 5.5 333.252 5.5H544.764C553.823 5.5 560.287 5.50428 565.352 5.91808C570.352 6.32664 573.503 7.10683 576.024 8.39131C581.015 10.9346 585.073 14.9927 587.617 19.9842C588.901 22.5051 589.681 25.6556 590.09 30.6561C590.504 35.7208 590.508 42.1845 590.508 51.2438V136.756C590.508 145.815 590.504 152.279 590.09 157.344C589.681 162.344 588.901 165.495 587.617 168.016C585.073 173.007 581.015 177.065 576.024 179.609C573.503 180.893 570.352 181.673 565.352 182.082C560.287 182.496 553.823 182.5 544.764 182.5H333.252C324.192 182.5 317.729 182.496 312.664 182.082C307.664 181.673 304.513 180.893 301.992 179.609C297.001 177.065 292.943 173.007 290.399 168.016C289.115 165.495 288.335 162.344 287.926 157.344C287.512 152.279 287.508 145.815 287.508 136.756V51.2438Z" stroke="#191B1F" stroke-width="11"/>
<path d="M441.743 145.281C416.124 145.281 397 127.781 397 97.4713C397 68.6051 415.403 49.6616 442.284 49.6616C468.264 49.6616 486.305 66.0793 486.305 95.4868C486.305 98.0126 486.125 99.9971 485.944 101.801H414.14C415.042 120.384 425.867 131.389 442.465 131.389C455.274 131.389 464.475 125.075 467.542 113.348H485.042C481.615 133.915 464.656 145.281 441.743 145.281ZM414.681 90.6156H468.444C468.083 74.3783 458.161 62.8318 441.923 62.8318C426.047 62.8318 415.763 74.7392 414.681 90.6156Z" fill="#191B1F"/>
<path d="M368.57 143.279C352.874 143.279 343.854 135.16 343.854 119.464V66.6029H321.732V53.0718H343.854V35.811H361.534V53.0718H387.514V66.6029H361.534V116.217C361.534 124.155 365.323 128.485 372.9 128.485H387.514V143.279H368.57Z" fill="#191B1F"/>
<path d="M501.417 143.279V53.0717H518.917L518.376 78.6905H519.278C522.706 64.6182 530.103 51.448 546.34 51.448C549.227 51.448 551.392 51.6284 553.557 51.9892V70.0306H546.881C530.283 70.0306 518.917 78.6905 518.917 103.227V143.279H501.417Z" fill="#191B1F"/>
<path d="M615.508 51.2438C615.508 42.1845 615.512 35.7208 615.926 30.6561C616.335 25.6556 617.115 22.5051 618.399 19.9842C620.943 14.9927 625.001 10.9346 629.992 8.39131C632.513 7.10683 635.664 6.32664 640.664 5.91808C645.729 5.50428 652.192 5.5 661.252 5.5H900.764C909.823 5.5 916.287 5.50428 921.352 5.91808C926.352 6.32664 929.503 7.10683 932.024 8.39131C937.015 10.9346 941.073 14.9927 943.617 19.9842C944.901 22.5051 945.681 25.6556 946.09 30.6561C946.504 35.7208 946.508 42.1845 946.508 51.2438V136.756C946.508 145.815 946.504 152.279 946.09 157.344C945.681 162.344 944.901 165.495 943.617 168.016C941.073 173.007 937.015 177.065 932.024 179.609C929.503 180.893 926.352 181.673 921.352 182.082C916.287 182.496 909.823 182.5 900.764 182.5H661.252C652.192 182.5 645.729 182.496 640.664 182.082C635.664 181.673 632.513 180.893 629.992 179.609C625.001 177.065 620.943 173.007 618.399 168.016C617.115 165.495 616.335 162.344 615.926 157.344C615.512 152.279 615.508 145.815 615.508 136.756V51.2438Z" fill="#FBFCFE"/>
<path d="M615.508 51.2438C615.508 42.1845 615.512 35.7208 615.926 30.6561C616.335 25.6556 617.115 22.5051 618.399 19.9842C620.943 14.9927 625.001 10.9346 629.992 8.39131C632.513 7.10683 635.664 6.32664 640.664 5.91808C645.729 5.50428 652.192 5.5 661.252 5.5H900.764C909.823 5.5 916.287 5.50428 921.352 5.91808C926.352 6.32664 929.503 7.10683 932.024 8.39131C937.015 10.9346 941.073 14.9927 943.617 19.9842C944.901 22.5051 945.681 25.6556 946.09 30.6561C946.504 35.7208 946.508 42.1845 946.508 51.2438V136.756C946.508 145.815 946.504 152.279 946.09 157.344C945.681 162.344 944.901 165.495 943.617 168.016C941.073 173.007 937.015 177.065 932.024 179.609C929.503 180.893 926.352 181.673 921.352 182.082C916.287 182.496 909.823 182.5 900.764 182.5H661.252C652.192 182.5 645.729 182.496 640.664 182.082C635.664 181.673 632.513 180.893 629.992 179.609C625.001 177.065 620.943 173.007 618.399 168.016C617.115 165.495 616.335 162.344 615.926 157.344C615.512 152.279 615.508 145.815 615.508 136.756V51.2438Z" stroke="#191B1F" stroke-width="11"/>
<path d="M790.34 144.985C764.721 144.985 745.597 127.485 745.597 97.1754C745.597 68.3092 764 49.3657 790.881 49.3657C816.861 49.3657 834.902 65.7834 834.902 95.1909C834.902 97.7167 834.722 99.7012 834.541 101.505H762.737C763.639 120.088 774.464 131.093 791.062 131.093C803.871 131.093 813.072 124.779 816.139 113.052H833.639C830.212 133.619 813.253 144.985 790.34 144.985ZM763.278 90.3197H817.041C816.68 74.0824 806.758 62.5359 790.52 62.5359C774.644 62.5359 764.36 74.4433 763.278 90.3197Z" fill="#191B1F"/>
<path d="M887.815 143.279C872.119 143.279 863.099 135.16 863.099 119.464V66.6029H840.977V53.0718H863.099V35.811H880.779V53.0718H906.759V66.6029H880.779V116.217C880.779 124.155 884.568 128.485 892.145 128.485H906.759V143.279H887.815Z" fill="#191B1F"/>
<path d="M701.929 50.4011C722.167 50.4011 732.286 62.6884 732.286 87.4437L732.286 143.279H714.578L714.578 90.1542C714.578 72.9881 707.35 64.8568 694.521 64.8568C678.465 64.8568 670.307 73.7812 670.307 86.2091L670.307 143.279H652.599L652.599 52.9309L670.307 52.9309L670.307 68.427H670.85C677.965 58.7918 685.959 50.4011 701.929 50.4011Z" fill="#191B1F"/>
</svg>
