<svg xmlns="http://www.w3.org/2000/svg" fill="none" viewBox="0 0 928 465">
  <path fill="currentColor" fill-rule="evenodd" d="M381.893 68.963c-4.125 8.218-7.942 17.054-11.412 26.432 21.54.035 38.823 7.166 52.369 19.103 5.844-6.524 11.69-12.43 17.568-17.757 17.613-15.963 35.514-26.731 54.534-33.418-19.532-24.772-45.76-39.878-79.472-39.878-.397 0-.795.002-1.194.004-12.075 11.394-23.022 26.847-32.393 45.514Zm113.709-4.809C476.587 70.79 458.7 81.522 441.09 97.482c-5.851 5.302-11.672 11.183-17.494 17.682 13.963 12.616 23.884 30.398 30.353 50.76 25.898-11.906 51.067-19.988 76.184-24.232-4.736-19.626-11.193-37.837-19.484-53.794-4.478-8.62-9.487-16.577-15.047-23.744Zm-73.417 51.09c-13.416-11.82-30.526-18.85-51.864-18.85h-.208c-9.503 25.969-16.359 56.04-19.771 88.636 7.066.134 13.441 2.499 18.818 6.524 18.221-31.666 35.622-56.74 53.025-76.31Zm-52.226 76.926c18.224-31.683 35.607-56.734 52.972-76.26 7.218 6.522 13.348 14.448 18.475 23.418 4.701 8.224 8.556 17.324 11.628 27.018-23.04 10.665-46.662 24.352-71.344 41.052-2.897-6.158-6.886-11.381-11.731-15.228Zm-1.305.265c-5.275-3.975-11.523-6.293-18.416-6.407-1.48 14.458-2.283 29.409-2.34 44.714 7.062-13.722 13.966-26.472 20.756-38.307Zm-19.65 38.342c6.957-13.504 13.76-26.06 20.448-37.723 4.701 3.763 8.585 8.869 11.405 14.909-10.416 7.069-21.022 14.674-31.853 22.814ZM496.599 63.811c13.379-4.56 27.321-7.108 42.122-8.04 14.007-.882 32.223 1.659 52.703 7.287l.31 1.051c.388 1.317.79 2.67 1.202 4.062 5.24 17.674 12.287 41.445 17.52 72.951-13.051-1.97-25.933-2.952-38.735-2.947a249.465 249.465 0 0 0-40.599 3.352c-7.29-30.236-18.654-57.155-34.523-77.716Zm94.495-1.88c-20.303-5.532-38.418-8.04-52.436-7.158-15.009.945-29.146 3.545-42.708 8.203-19.706-25.124-46.261-40.53-80.47-40.53h-.116c12.443-11.43 26.057-18.568 40.361-20.505 2.714-.023 5.433-.035 8.157-.035 85.988 0 166.478 11.716 235.433 32.114-34.864-8.034-66.088-12.305-88.596-12.305-7.427 0-12.943.643-16.879 2.134-3.967 1.502-6.351 3.875-7.445 7.297-1.079 3.378-.882 7.717.137 13.124.925 4.908 2.542 10.76 4.562 17.66Zm1.465 1.441.134.454c.388 1.317.79 2.67 1.202 4.063 5.263 17.75 12.353 41.666 17.601 73.392 26.963 4.176 54.653 12.562 83.846 25.164.944-21.789 3.351-38.589 9.376-50.369a424.511 424.511 0 0 0-23.801-14.768c-26.847-15.461-54.206-27.365-78.956-35.143-3.179-1-6.316-1.93-9.402-2.793Zm112.626 51.814a425.106 425.106 0 0 0-23.769-14.744c-26.907-15.496-54.332-27.43-79.155-35.231a304.408 304.408 0 0 0-10.034-2.969c-2.101-7.161-3.77-13.162-4.712-18.157-1.013-5.37-1.168-9.504-.167-12.634.986-3.085 3.115-5.254 6.846-6.667 3.762-1.424 9.129-2.07 16.525-2.07 25.731 0 62.981 5.613 104.086 16.096 27.605 8.917 53.184 19.262 76.318 30.823a433.81 433.81 0 0 1 20.095 10.697c4.444 12.447 8.03 23.759 10.724 34.365-28.251-12.351-56.762-19.3-77.827-19.3-19.925 0-31.828 6.612-38.93 19.791Zm.369 1.451c-1.939 3.815-3.503 8.185-4.762 13.123-2.569 10.076-3.845 22.437-4.468 37.111 25.089 10.899 51.292 24.905 79.099 42.019 2.352-7.183 5.917-13.507 10.799-17.938-21.597-28.744-50.123-53.817-80.668-74.315Zm81.422 73.654c-21.697-28.859-50.332-54.006-80.956-74.546 2.393-4.464 5.331-8.133 8.933-11.029 6.843-5.501 16.218-8.322 29.162-8.322 21.078 0 49.756 7.028 78.135 19.529 3.7 14.874 5.625 28.381 5.683 41.722.046 10.828-1.138 21.556-3.609 32.826-6.663-3.897-13.935-6.139-20.921-6.139-6.551 0-12.003 2.223-16.427 5.959Zm-.153 1.465c-2.516 2.299-4.677 5.131-6.5 8.354-1.609 2.845-2.947 5.987-4.024 9.32 11.157 6.885 22.572 14.268 34.277 22.151-6.31-13.925-14.365-27.225-23.753-39.825Zm24.483 39.015c-6.325-13.875-14.37-27.125-23.73-39.678 4.278-3.628 9.53-5.761 15.827-5.761 6.88 0 14.088 2.245 20.693 6.165-2.745 12.173-6.985 24.996-12.79 39.274Zm-280.939-88.104c-25.08 4.231-50.223 12.305-76.116 24.219 6.245 20.072 9.17 42.593 9.332 65.114h76.651c-.079-31.005-3.262-61.566-9.867-89.333ZM382.112 208.32c24.656-16.691 48.238-30.362 71.223-41.011 6.18 19.917 9.086 42.284 9.248 64.691h-75.594c-.035-8.621-1.77-16.717-4.877-23.68ZM349.042 232c10.967-8.255 21.699-15.959 32.235-23.114 2.996 6.776 4.677 14.665 4.712 23.114h-36.947Zm182.314-89.498a248.428 248.428 0 0 1 40.365-3.327c12.854-.005 25.793.989 38.906 2.984 4.081 24.895 7.016 54.577 7.047 89.841h-76.44c-.079-31.034-3.261-61.652-9.878-89.498Zm80.31-.182c4.061 24.873 6.977 54.506 7.008 89.68h76.112v-.542c0-4.791-.008-9.457-.017-13.997-.034-18.814-.064-35.465.528-49.946-29.14-12.607-56.757-21.001-83.631-25.195Zm213.563 48.693c2.534-11.452 3.751-22.356 3.704-33.372-.057-13.21-1.933-26.567-5.526-41.206 11.767 5.247 23.464 11.431 34.527 18.443 14.838 9.404 28.48 20.259 39.612 32.29-13.839 9.256-26.761 19.132-39.652 29.185-2.3 1.794-4.6 3.594-6.903 5.397l-.055.043-.069.054c-2.714 2.124-5.434 4.253-8.168 6.382-4.455-7.057-10.612-13.015-17.47-17.216Zm-12.941 39.999c5.74-14.133 9.956-26.865 12.709-38.967a53.413 53.413 0 0 1 9.183 7.234 52.894 52.894 0 0 1 7.726 9.567c-9.571 7.446-19.324 14.891-29.618 22.166Zm10.814-115.806c-2.647-10.556-6.177-21.789-10.552-34.117 41.081 23.504 72.7 51.151 92.056 81.467a373.485 373.485 0 0 0-6.218 4.051c-19.762-21.403-47.345-39.036-75.286-51.401Zm-11.067-35.562C881.537 119.15 924.543 170.58 927.175 227a75.05 75.05 0 0 1 .132 4.459l-.001.462-.001.08v1h-.003c-.247 58.458-43.832 111.83-115.552 152.52l-.002.004-.003-.001c-28.274 16.04-60.92 30.109-97.007 41.741l.091.356c-1.987.511-3.966 1.01-5.935 1.497-71.081 22.169-155.053 34.979-245.012 34.979h-.227v.5c-2.692 0-5.362-.181-8.008-.536-87.015-.758-168.183-13.501-237.176-35.068l-.319.573c-.916-.51-1.828-1.022-2.736-1.536-36.958-11.754-70.359-26.053-99.214-42.403l-.089-.028.006-.019c-41.743-23.666-73.965-51.626-93.671-82.384l-.835-.276.225-.683C8.045 280.379.564 257.123.462 233H0v-1h.462c.103-24.299 7.694-47.72 21.681-69.716l-.066-.199.245-.081c19.704-30.85 51.996-58.891 93.856-82.615l-.065-.21.974-.303c28.884-16.272 62.282-30.497 99.215-42.184.46-.262.922-.523 1.385-.784l.166.295C286.979 14.52 368.372 1.703 455.647.943a60.124 60.124 0 0 1 8.008-.537v.5h.227c92.584 0 178.826 13.569 251.201 36.943.994.254 1.991.51 2.99.77l-.049.188c34.823 11.434 66.378 25.151 93.813 40.725l.14-.05.058.162ZM696.28 167.942a501.47 501.47 0 0 0-.147 4.135c-.422 13.375-.394 28.493-.364 45.372.009 4.542.017 9.212.017 14.009V232h76.121c.024-7.516 1.062-15.193 3.204-22.127-27.727-17.076-53.841-31.05-78.831-41.931Zm79.711 42.473c-2.055 6.754-3.06 14.234-3.084 21.585h36.501c-11.408-7.672-22.537-14.867-33.417-21.585ZM540.236 233h-76.647l.001.991c0 23.403-3.15 45.063-9.176 63.892 25.356 11.579 50.025 19.508 74.607 23.791 7.344-27.524 11.215-57.766 11.215-88.477V233Zm-77.646.991c0 23.277-3.127 44.789-9.092 63.472-23.06-10.604-46.693-24.223-71.351-40.861 3.038-6.986 4.747-15.068 4.839-23.602h75.603l.001.622v.369Zm-9.401 64.43c-23.108-10.617-46.777-24.249-71.456-40.892-2.855 6.231-6.788 11.542-11.585 15.454 18.077 31.347 35.331 56.167 52.567 75.546 5.748-5.214 10.92-11.348 15.489-18.288 6.097-9.262 11.118-19.961 14.985-31.82Zm-102.926-19.212c7.017-.022 13.309-2.381 18.589-6.473-6.854-11.917-13.824-24.766-20.955-38.606.054 15.434.866 30.507 2.366 45.079Zm-1.198-44.996c7.002 13.572 13.847 26.184 20.578 37.892 2.327-1.917 4.447-4.176 6.334-6.724 1.881-2.541 3.529-5.366 4.916-8.419-10.418-7.048-21.016-14.631-31.828-22.749Zm72.905 114.983c-17.272-19.419-34.542-44.26-52.614-75.586-5.39 4.142-11.814 6.554-18.989 6.598 3.42 32.503 10.265 62.49 19.744 88.394l.211.001c20.296 0 37.647-7.006 51.648-19.407Zm-51.491 20.407c20.5-.037 38.025-7.144 52.157-19.661 5.837 6.516 11.676 12.414 17.548 17.735 16.857 15.278 33.977 25.797 52.09 32.534-20.182 25.947-46.135 41.81-76.794 41.81l-.696-.001c-12.273-11.437-23.391-27.058-32.891-45.981-4.126-8.22-7.943-17.057-11.414-26.436Zm45.393 73.417c30.984-.135 57.125-16.288 77.386-42.447 14.311 5.206 29.247 8.07 45.166 9.072 14.095.887 32.335-1.654 52.776-7.251-2.144 7.284-3.858 13.423-4.815 18.54-1.013 5.414-1.195 9.76-.087 13.143 1.123 3.428 3.546 5.803 7.565 7.307 3.989 1.493 9.573 2.138 17.086 2.138 21.795 0 50.247-3.684 81.71-10.608-67.456 19.204-145.541 30.182-228.777 30.182-2.724 0-5.443-.012-8.157-.035-14.109-1.911-27.547-8.883-39.853-20.041Zm122.615-34.373c14.085.887 32.426-1.687 53.046-7.381l.056-.192c.41-1.387.835-2.814 1.272-4.284v-.001c5.274-17.741 12.365-41.59 17.615-73.177-12.818 1.891-25.49 2.836-38.092 2.836-14.265 0-28.439-1.211-42.634-3.633-8.044 29.783-20.159 56.375-35.853 76.927 14.131 5.104 28.876 7.916 44.59 8.905Zm48.881 12.471c.972-5.2 2.74-11.488 4.966-19.037a302.346 302.346 0 0 0 9.693-2.874c24.823-7.801 52.248-19.735 79.154-35.231a425.391 425.391 0 0 0 23.628-14.65c7.011 13.717 18.858 20.74 38.843 20.74 21.977 0 50.249-6.967 77.993-19.246-2.722 10.488-6.306 21.685-10.712 34.013a434.5 434.5 0 0 1-19.81 10.536c-24.852 12.419-52.525 23.435-82.499 32.785-37.807 9.35-72.303 14.368-97.675 14.368-7.482 0-12.919-.646-16.735-2.074-3.787-1.417-5.954-3.592-6.966-6.682-1.026-3.134-.886-7.272.12-12.648Zm93.314-58.008a423.87 423.87 0 0 0 23.677-14.686c-5.765-11.871-8.107-28.546-9.036-49.824-29.09 12.478-56.78 20.765-83.807 24.857-5.266 31.807-12.399 55.799-17.696 73.616l-.537 1.807-.614 2.069a301.262 301.262 0 0 0 9.058-2.696c24.75-7.778 52.108-19.682 78.955-35.143Zm33.898-2.749c-3.617-3.049-6.554-6.91-8.934-11.594 30.618-20.519 59.256-45.641 80.972-74.476 4.587 4.044 10.203 6.384 16.785 6.384 7 0 14.288-2.298 20.962-6.275 2.506 11.417 3.672 22.251 3.571 33.189-.125 13.409-2.156 26.987-5.974 41.996-27.868 12.431-56.306 19.481-78.31 19.481-12.933 0-22.273-2.974-29.072-8.705Zm-9.381-12.498c30.537-20.479 59.065-45.529 80.677-74.249-4.558-4.307-8.046-10.346-10.396-17.443-27.761 17.133-53.994 31.136-79.174 42.006.606 14.188 1.832 26.284 4.257 36.262 1.223 5.03 2.745 9.503 4.636 13.424Zm98.204-68.188c-6.328 0-11.743-2.249-16.183-6.186 9.422-12.615 17.517-25.936 23.873-39.888 5.95 14.513 10.268 27.488 13.042 39.771-6.617 4.002-13.84 6.303-20.732 6.303Zm-16.924-6.866c9.194-12.319 17.112-25.309 23.372-38.898-11.421 7.722-22.577 14.962-33.496 21.719 1.202 3.681 2.711 7.068 4.514 10.065 1.635 2.719 3.508 5.111 5.61 7.114Zm-345.624 94.127c16.851 15.272 33.955 25.757 52.059 32.446 5.007-6.53 9.654-13.685 13.924-21.374 9.086-16.362 16.447-35.117 21.922-55.364-24.612-4.297-49.299-12.233-74.656-23.804-6.813 20.84-17.18 38.151-30.724 50.435 5.816 6.491 11.631 12.364 17.475 17.661ZM385.986 233c-.092 8.341-1.75 16.222-4.682 23.032-10.531-7.128-21.248-14.805-32.188-23.032h36.87Zm426.278 151.076c4.341-12.214 7.872-23.335 10.548-33.775 27.993-12.547 55.35-30.484 75.046-52.108a384.213 384.213 0 0 0 6.682 4.357c-19.407 30.345-51.102 58.014-92.276 81.526Zm16.671-76.477c-.123 13.275-2.101 26.699-5.809 41.464 12.346-5.577 24.561-12.207 36.035-19.744 14.166-9.305 27.156-19.961 37.857-31.688-13.711-9.198-26.491-19.004-39.241-28.985-2.233-1.748-4.465-3.502-6.701-5.258l-.001-.001c-2.837-2.228-5.679-4.461-8.538-6.695-4.433 7.001-10.51 12.941-17.27 17.158 2.571 11.603 3.772 22.619 3.668 33.749Zm5.24-42.097a53.906 53.906 0 0 1-9.14 7.313c-2.74-12.021-6.944-24.691-12.686-38.784 10.232 7.236 19.909 14.639 29.396 22.043a53.8 53.8 0 0 1-7.57 9.428Zm-222.488 56.917c26.937-4.11 54.554-12.404 83.591-24.887-.602-14.609-.562-31.354-.517-50.173v-.009c.011-4.657.023-9.441.025-14.35h-76.112c-.024 35.041-2.931 64.591-6.987 89.419Zm84.574-25.312c25.081-10.852 51.224-24.823 78.903-41.917-2.088-6.689-3.191-14.266-3.255-22.19h-76.123c-.002 4.92-.014 9.711-.025 14.374-.038 16.179-.073 30.807.3 43.866.056 1.993.123 3.949.2 5.867Zm79.782-42.46c10.876-6.735 21.99-13.95 33.37-21.647h-36.504c.063 7.748 1.13 15.133 3.134 21.647Zm-203.659 70.801c12.655 0 25.382-.957 38.264-2.872 4.076-24.849 7.002-54.447 7.026-89.576h-76.438v.197c0 30.752-3.871 61.051-11.226 88.647 14.113 2.403 28.2 3.604 42.374 3.604Zm-228.646-95.376L346.34 232h-36.628c.05-7.724 2.271-15.562 6.034-22.53 9.003 6.532 18.288 13.412 27.975 20.589l.011.009.006.004Zm-13.616-37.268a748.955 748.955 0 0 0 16.264 37.986l-2.14-1.586-.001-.001c-9.694-7.183-18.991-14.072-28.011-20.616a52.383 52.383 0 0 1 5.536-7.981c2.509-2.978 5.32-5.616 8.352-7.802Zm-.379-.958c-5.732 4.081-10.674 9.72-14.324 16.151-21.913-15.876-42.209-29.7-62.616-40.736 6.028-9.575 13.214-18.508 21.244-26.587a163.094 163.094 0 0 1 29.925-23.762l.621 1.92c.95 2.953 1.926 6.022 2.941 9.212l.003.009v.001c5.557 17.476 12.262 38.559 22.206 63.792Zm-77.471-23.736c20.395 11.024 40.695 24.854 62.658 40.768-3.875 7.132-6.168 15.176-6.218 23.122h-75.673c.008-22.724 7.268-44.59 19.233-63.89ZM232.039 232c.007-22.917 7.321-44.941 19.352-64.365-14.923-8.006-29.909-14.505-45.645-19.215a205.074 205.074 0 0 0-20.59-5.025c-18.947 26.778-30.374 56.759-30.043 88.605h76.926Zm-26.007-84.538c15.827 4.737 30.895 11.275 45.889 19.323 12.972-20.625 31.262-38.266 51.734-50.852-8.212-25.248-14.751-41.44-28.146-51.081-12.017 6.83-23.655 14.399-34.654 22.629-21.46 16.058-40.446 34.597-55.061 55.017a206.172 206.172 0 0 1 20.238 4.964Zm68.569-83.244c-35.547 20.266-67.74 46.983-89.889 78.076-24.003-4.478-50.203-4.933-80.664-.51 16.08-27.422 39.826-53.615 71.478-77.33 12.452-2.653 24.485-4.74 35.721-6.103 14.267-1.73 27.235-2.29 38.143-1.356 10.629.91 19.25 3.233 25.211 7.223ZM154.112 232c-.33-31.945 11.076-61.988 29.963-88.807-23.963-4.414-50.158-4.808-80.67-.304-16.68 28.847-24.9 59.033-24.94 89.111h75.647Zm-76.647 0c.04-30.038 8.185-60.149 24.677-88.922-23.514 3.562-49.588 10.017-79.166 19.763C9.086 184.695 1.565 207.932 1.462 232h76.003Zm-53.632-70.493c29.467-9.653 55.472-16.036 78.948-19.536 15.869-27.3 39.274-53.376 70.422-77.017-18.122 3.946-37.077 9.057-55.719 14.846-41.709 23.51-73.878 51.248-93.65 81.707Zm.127 142.184c19.643 30.167 51.45 57.659 92.641 81.012 18.599 5.8 37.529 10.932 55.649 14.912-30.256-23.181-53.438-49.103-69.302-76.488-23.484-3.456-49.5-9.805-78.988-19.436Zm-.86-1.334c29.602 9.725 55.69 16.147 79.212 19.664-15.938-27.9-24.299-57.296-24.821-86.844-.013-.726-.021-1.451-.024-2.177H1.462c.103 24.141 7.668 47.445 21.639 69.357Zm80.473 19.85c-16.119-27.974-24.559-57.45-25.082-87.048-.013-.72-.021-1.439-.024-2.159h75.66c.06 3.365.251 6.75.578 10.155 2.813 29.356 13.489 55.575 29.246 78.593-23.89 4.442-49.992 4.887-80.378.459Zm.64 1.103c16.076 27.517 39.601 53.559 70.346 76.807 12.796 2.751 25.161 4.912 36.688 6.31 14.267 1.73 27.235 2.289 38.143 1.355 10.573-.905 19.159-3.208 25.117-7.16-34.828-19.45-67.438-45.502-89.935-77.973-23.926 4.503-50.029 5.007-80.359.661Zm81.434-.866c19.322 27.754 46.089 50.809 75.339 69.038a339.016 339.016 0 0 0 14.437 8.505c13.518-9.68 20.066-25.998 28.352-51.512-20.168-12.589-38.437-30.12-51.492-50.702-15.268 8.253-30.598 14.945-46.716 19.769a206.111 206.111 0 0 1-19.92 4.902Zm-.622-.899a205.252 205.252 0 0 0 20.256-4.961c16.026-4.796 31.273-11.449 46.468-19.658-10.37-16.595-17.349-35.141-19.221-54.659a107.066 107.066 0 0 1-.485-9.267h-76.916c.06 3.334.25 6.687.573 10.06 2.809 29.314 13.514 55.499 29.325 78.485Zm67.605-25.097c-10.315-16.493-17.249-34.912-19.107-54.277a106 106 0 0 1-.479-9.171h75.673c.125 8.256 2.374 16.089 6.038 22.916-21.778 15.788-41.917 29.533-62.125 40.532Zm.533.847c20.219-11.01 40.351-24.747 62.078-40.495 3.707 6.597 8.743 12.205 14.445 16.277-9.913 25.168-16.602 46.203-22.149 63.645v.002c-1.016 3.193-1.993 6.266-2.944 9.221l-.501 1.55a166.732 166.732 0 0 1-21.574-16.098c-11.262-9.91-21.306-21.427-29.355-34.102Zm62.893-41.087a50.974 50.974 0 0 0 6.485 9.101 47.35 47.35 0 0 0 7.523 6.809 750.716 750.716 0 0 1 16.405-38.309l-2.688 1.991-.005.004c-9.59 7.106-18.791 13.924-27.72 20.404Zm-.484-.885c8.918-6.473 18.112-13.286 27.701-20.391l2.608-1.932h-36.164c.125 8.032 2.302 15.661 5.855 22.323Zm15.391-63.11a748.128 748.128 0 0 0 15.941 37.309 456.888 456.888 0 0 1 2.329-43.495c-6.473.106-12.72 2.39-18.27 6.186Zm18.374-7.187c-6.671.082-13.076 2.397-18.75 6.234-9.883-25.101-16.557-46.087-22.097-63.51l-.015-.046-.001-.003-.005-.016-.007-.021a2521.668 2521.668 0 0 0-3.612-11.289c20.335-12.362 42.769-19.691 64.195-19.972-9.477 26-16.307 56.063-19.708 88.623ZM276.465 64.311c13.404 9.859 19.98 26.24 28.067 51.087 20.535-12.442 43.208-19.799 64.881-20 3.517-9.541 7.392-18.529 11.587-26.883 9.195-18.317 19.938-33.62 31.821-45.05-41.696.616-91.601 15.6-136.356 40.846Zm137.422-41.859c-42.229.374-92.948 15.543-138.318 41.216-6.182-4.302-15.155-6.733-26.094-7.67-11-.94-24.042-.375-38.349 1.36-10.627 1.289-21.96 3.224-33.683 5.67 11.973-8.845 25.056-17.338 39.261-25.415 67.794-21.44 147.534-34.328 233.132-35.602-12.738 2.979-24.831 10.023-35.949 20.441ZM212.185 39.061c-13.375 7.795-25.732 15.968-37.081 24.46-17.343 3.702-35.486 8.494-53.417 13.942a441.456 441.456 0 0 1 14.954-7.83c22.918-11.453 48.235-21.712 75.544-30.572Zm-91.412 347.976a440.667 440.667 0 0 0 15.868 8.332c22.656 11.322 47.656 21.477 74.608 30.267-13.347-7.767-25.722-15.985-37.115-24.588-17.344-3.736-35.467-8.551-53.361-14.011Zm55.687 14.507c12.072 2.543 23.742 4.551 34.666 5.875 14.307 1.735 27.349 2.301 38.349 1.36 10.89-.932 19.832-3.346 26.011-7.613 49.511 27.441 103.344 41.566 138.903 41.851 10.98 10.162 22.9 17.04 35.447 19.974-85.971-1.28-166.033-14.274-234.017-35.883-14.197-8.046-27.321-16.593-39.359-25.564Zm99.929-1.021c48.769 26.943 101.65 40.924 136.92 41.481-12.076-11.479-22.989-26.949-32.309-45.516-4.195-8.357-8.071-17.346-11.589-26.89-21.138-.211-43.932-7.76-64.761-20.58-8.157 25.098-14.741 41.604-28.261 51.505Zm28.578-52.484c.192-.591.384-1.187.577-1.787.948-2.945 1.921-6.004 2.932-9.182l.014-.043c5.53-17.389 12.188-38.326 22.039-63.362 5.855 3.981 12.364 6.35 18.831 6.532 3.409 32.473 10.229 62.457 19.683 88.397-20.89-.296-43.444-7.814-64.076-20.555Zm25.938-75.328c5.729 3.939 12.078 6.275 18.351 6.483a457.004 457.004 0 0 1-2.353-43.936 748.744 748.744 0 0 0-15.998 37.453ZM926.302 232a116.236 116.236 0 0 0-.126-4.946c-1.285-21.615-11.942-41.61-27.945-59.141-13.854 9.258-26.793 19.146-39.722 29.229-2.298 1.792-4.595 3.59-6.898 5.392v.001l-.013.009c-2.78 2.177-5.568 4.358-8.371 6.541 4.135 6.845 6.671 14.675 6.726 22.915h76.349Zm-77.349 0c-.055-7.994-2.505-15.614-6.52-22.297-9.624 7.486-19.443 14.978-29.811 22.297h36.331Zm-36.331 1h36.325c-.144 7.935-2.641 15.535-6.673 22.218-9.56-7.46-19.322-14.925-29.652-22.218Zm37.325 0h76.345c-.47 23.269-11.543 44.952-28.595 63.882-13.723-9.199-26.518-19.015-39.303-29.023a5238.125 5238.125 0 0 1-6.696-5.255l-.036-.027a3512.23 3512.23 0 0 0-8.595-6.74c4.153-6.845 6.735-14.656 6.88-22.837Zm55.129 68.706c10.219-16.195 16.942-33.145 19.744-50.626-4.236 16.685-13.634 32.294-26.283 46.363a375.345 375.345 0 0 0 6.539 4.263Zm18.822-92.835c-4.526-14.935-13.308-28.876-24.826-41.518a384.028 384.028 0 0 1 6.07-3.953c9.196 14.598 15.552 29.81 18.756 45.471Z" clip-rule="evenodd"/>
</svg>