<svg viewBox="0 0 952 188" fill="none" xmlns="http://www.w3.org/2000/svg">
<rect x="5.5" y="5.5" width="257" height="177" rx="26.5273" fill="#FBFCFE"/>
<rect x="5.5" y="5.5" width="257" height="177" rx="26.5273" stroke="#191B1F" stroke-width="11"/>
<path d="M76.7469 145.825C56.509 145.825 46.39 133.538 46.39 108.782V52.9474H64.0982V106.072C64.0982 123.238 71.326 131.369 84.1554 131.369C100.211 131.369 108.369 122.445 108.369 110.017V52.9474H126.077V143.295H108.369V127.799H107.827C100.711 137.434 92.7167 145.825 76.7469 145.825Z" fill="#191B1F"/>
<path d="M190.387 50.4011C210.624 50.4011 220.743 62.6884 220.743 87.4437L220.743 143.279L203.035 143.279L203.035 90.1542C203.035 72.9881 195.807 64.8568 182.978 64.8568C166.922 64.8568 158.765 73.7812 158.765 86.209L158.765 143.279L141.057 143.279L141.057 52.9308L158.765 52.9308L158.765 68.4269L159.307 68.4269C166.422 58.7918 174.417 50.4011 190.387 50.4011Z" fill="#191B1F"/>
<path d="M287.5 51.2438C287.5 42.1845 287.504 35.7208 287.918 30.6561C288.327 25.6556 289.107 22.5051 290.391 19.9842C292.935 14.9927 296.993 10.9346 301.984 8.39131C304.505 7.10683 307.656 6.32664 312.656 5.91808C317.721 5.50428 324.185 5.5 333.244 5.5H544.756C553.815 5.5 560.279 5.50428 565.344 5.91808C570.344 6.32664 573.495 7.10683 576.016 8.39131C581.007 10.9346 585.065 14.9927 587.609 19.9842C588.893 22.5051 589.673 25.6556 590.082 30.6561C590.496 35.7208 590.5 42.1845 590.5 51.2438V136.756C590.5 145.815 590.496 152.279 590.082 157.344C589.673 162.344 588.893 165.495 587.609 168.016C585.065 173.007 581.007 177.065 576.016 179.609C573.495 180.893 570.344 181.673 565.344 182.082C560.279 182.496 553.815 182.5 544.756 182.5H333.244C324.184 182.5 317.721 182.496 312.656 182.082C307.656 181.673 304.505 180.893 301.984 179.609C296.993 177.065 292.935 173.007 290.391 168.016C289.107 165.495 288.327 162.344 287.918 157.344C287.504 152.279 287.5 145.815 287.5 136.756V51.2438Z" fill="#FBFCFE"/>
<path d="M287.5 51.2438C287.5 42.1845 287.504 35.7208 287.918 30.6561C288.327 25.6556 289.107 22.5051 290.391 19.9842C292.935 14.9927 296.993 10.9346 301.984 8.39131C304.505 7.10683 307.656 6.32664 312.656 5.91808C317.721 5.50428 324.185 5.5 333.244 5.5H544.756C553.815 5.5 560.279 5.50428 565.344 5.91808C570.344 6.32664 573.495 7.10683 576.016 8.39131C581.007 10.9346 585.065 14.9927 587.609 19.9842C588.893 22.5051 589.673 25.6556 590.082 30.6561C590.496 35.7208 590.5 42.1845 590.5 51.2438V136.756C590.5 145.815 590.496 152.279 590.082 157.344C589.673 162.344 588.893 165.495 587.609 168.016C585.065 173.007 581.007 177.065 576.016 179.609C573.495 180.893 570.344 181.673 565.344 182.082C560.279 182.496 553.815 182.5 544.756 182.5H333.244C324.184 182.5 317.721 182.496 312.656 182.082C307.656 181.673 304.505 180.893 301.984 179.609C296.993 177.065 292.935 173.007 290.391 168.016C289.107 165.495 288.327 162.344 287.918 157.344C287.504 152.279 287.5 145.815 287.5 136.756V51.2438Z" stroke="#191B1F" stroke-width="11"/>
<path d="M441.735 145.281C416.116 145.281 396.992 127.781 396.992 97.4713C396.992 68.6051 415.395 49.6616 442.276 49.6616C468.256 49.6616 486.297 66.0793 486.297 95.4868C486.297 98.0126 486.117 99.9971 485.937 101.801H414.132C415.034 120.384 425.859 131.389 442.457 131.389C455.266 131.389 464.467 125.075 467.534 113.348H485.034C481.607 133.915 464.648 145.281 441.735 145.281ZM414.673 90.6156H468.436C468.076 74.3783 458.153 62.8318 441.916 62.8318C426.039 62.8318 415.755 74.7392 414.673 90.6156Z" fill="#191B1F"/>
<path d="M368.562 143.279C352.866 143.279 343.846 135.16 343.846 119.464V66.6029H321.724V53.0718H343.846V35.811H361.526V53.0718H387.506V66.6029H361.526V116.217C361.526 124.155 365.315 128.485 372.892 128.485H387.506V143.279H368.562Z" fill="#191B1F"/>
<path d="M501.409 143.279V53.0717H518.909L518.368 78.6905H519.27C522.698 64.6182 530.095 51.448 546.332 51.448C549.219 51.448 551.384 51.6284 553.549 51.9892V70.0306H546.873C530.275 70.0306 518.909 78.6905 518.909 103.227V143.279H501.409Z" fill="#191B1F"/>
<path d="M615.5 51.2438C615.5 42.1845 615.504 35.7208 615.918 30.6561C616.327 25.6556 617.107 22.5051 618.391 19.9842C620.935 14.9927 624.993 10.9346 629.984 8.39131C632.505 7.10683 635.656 6.32664 640.656 5.91808C645.721 5.50428 652.185 5.5 661.244 5.5H900.756C909.815 5.5 916.279 5.50428 921.344 5.91808C926.344 6.32664 929.495 7.10683 932.016 8.39131C937.007 10.9346 941.065 14.9927 943.609 19.9842C944.893 22.5051 945.673 25.6556 946.082 30.6561C946.496 35.7208 946.5 42.1845 946.5 51.2438V136.756C946.5 145.815 946.496 152.279 946.082 157.344C945.673 162.344 944.893 165.495 943.609 168.016C941.065 173.007 937.007 177.065 932.016 179.609C929.495 180.893 926.344 181.673 921.344 182.082C916.279 182.496 909.815 182.5 900.756 182.5H661.244C652.185 182.5 645.721 182.496 640.656 182.082C635.656 181.673 632.505 180.893 629.984 179.609C624.993 177.065 620.935 173.007 618.391 168.016C617.107 165.495 616.327 162.344 615.918 157.344C615.504 152.279 615.5 145.815 615.5 136.756V51.2438Z" fill="#FBFCFE"/>
<path d="M615.5 51.2438C615.5 42.1845 615.504 35.7208 615.918 30.6561C616.327 25.6556 617.107 22.5051 618.391 19.9842C620.935 14.9927 624.993 10.9346 629.984 8.39131C632.505 7.10683 635.656 6.32664 640.656 5.91808C645.721 5.50428 652.185 5.5 661.244 5.5H900.756C909.815 5.5 916.279 5.50428 921.344 5.91808C926.344 6.32664 929.495 7.10683 932.016 8.39131C937.007 10.9346 941.065 14.9927 943.609 19.9842C944.893 22.5051 945.673 25.6556 946.082 30.6561C946.496 35.7208 946.5 42.1845 946.5 51.2438V136.756C946.5 145.815 946.496 152.279 946.082 157.344C945.673 162.344 944.893 165.495 943.609 168.016C941.065 173.007 937.007 177.065 932.016 179.609C929.495 180.893 926.344 181.673 921.344 182.082C916.279 182.496 909.815 182.5 900.756 182.5H661.244C652.185 182.5 645.721 182.496 640.656 182.082C635.656 181.673 632.505 180.893 629.984 179.609C624.993 177.065 620.935 173.007 618.391 168.016C617.107 165.495 616.327 162.344 615.918 157.344C615.504 152.279 615.5 145.815 615.5 136.756V51.2438Z" stroke="#191B1F" stroke-width="11"/>
<path d="M790.332 144.985C764.713 144.985 745.589 127.485 745.589 97.1754C745.589 68.3092 763.992 49.3657 790.873 49.3657C816.853 49.3657 834.894 65.7834 834.894 95.1909C834.894 97.7167 834.714 99.7012 834.534 101.505H762.729C763.631 120.088 774.456 131.093 791.054 131.093C803.863 131.093 813.064 124.779 816.131 113.052H833.631C830.204 133.619 813.245 144.985 790.332 144.985ZM763.27 90.3197H817.033C816.673 74.0824 806.75 62.5359 790.513 62.5359C774.636 62.5359 764.353 74.4433 763.27 90.3197Z" fill="#191B1F"/>
<path d="M887.807 143.279C872.111 143.279 863.091 135.16 863.091 119.464V66.6029H840.969V53.0718H863.091V35.811H880.771V53.0718H906.751V66.6029H880.771V116.217C880.771 124.155 884.56 128.485 892.137 128.485H906.751V143.279H887.807Z" fill="#191B1F"/>
<path d="M701.921 50.4011C722.159 50.4011 732.278 62.6884 732.278 87.4437L732.278 143.279H714.57L714.57 90.1542C714.57 72.9881 707.342 64.8568 694.513 64.8568C678.457 64.8568 670.299 73.7812 670.299 86.2091L670.299 143.279H652.591L652.591 52.9309L670.299 52.9309L670.299 68.427H670.842C677.957 58.7918 685.951 50.4011 701.921 50.4011Z" fill="#191B1F"/>
</svg>
