<svg width="26" height="19" viewBox="0 0 26 19" fill="none" xmlns="http://www.w3.org/2000/svg">
<rect x="0.527009" y="1.01996" width="24.6257" height="16.9601" rx="2.54184" fill="#191B1F"/>
<rect x="0.527009" y="1.01996" width="24.6257" height="16.9601" rx="2.54184" stroke="#FBFCFE" stroke-width="1.05402"/>
<path d="M7.3541 14.4659C5.41491 14.4659 4.44531 13.2885 4.44531 10.9164V5.56635H6.14211V10.6567C6.14211 12.3016 6.83467 13.0807 8.06398 13.0807C9.60246 13.0807 10.3841 12.2256 10.3841 11.0347V5.56635H12.0809V14.2235H10.3841V12.7386H10.3321C9.65034 13.6619 8.88432 14.4659 7.3541 14.4659Z" fill="#FBFCFE"/>
<path d="M18.2426 5.32236C20.1818 5.32236 21.1514 6.49972 21.1514 8.87177L21.1514 14.2219L19.4546 14.2219L19.4546 9.13148C19.4546 7.48663 18.762 6.70749 17.5327 6.70749C15.9942 6.70749 15.2126 7.56263 15.2126 8.75347L15.2126 14.2219L13.5158 14.2219L13.5158 5.56476L15.2126 5.56476L15.2126 7.04959L15.2645 7.04959C15.9463 6.12635 16.7124 5.32236 18.2426 5.32236Z" fill="#FBFCFE"/>
</svg>
