<svg width="44" height="30" viewBox="0 0 44 30" fill="none" xmlns="http://www.w3.org/2000/svg">
<rect x="1.45023" y="1.17289" width="40.5484" height="27.6542" rx="3.48731" fill="#333333"/>
<rect x="1.45023" y="1.17289" width="40.5484" height="27.6542" rx="3.48731" stroke="#E4E5E7" stroke-width="2.34578"/>
<path d="M13.1201 22.3642C10.1754 22.3642 8.703 20.5763 8.703 16.9742V8.84988H11.2797V16.5799C11.2797 19.0776 12.3314 20.2608 14.1981 20.2608C16.5119 20.2608 17.7213 17.7893 17.7213 15.5544V8.84988H20.298V21.9961H17.7213L17.7739 18.5781H17.6424C17.2743 20.5237 15.6705 22.3642 13.1201 22.3642ZM22.8235 21.9961V8.84988H25.3738L25.3213 12.2942H25.4527C25.8471 10.3485 27.6087 8.48178 30.0276 8.48178C33.1301 8.48178 34.6025 10.4011 34.6025 14.0032V21.9961H32.0521V14.3713C32.0521 11.8735 30.9215 10.5852 28.9496 10.5852C26.741 10.5852 25.3738 12.9252 25.3738 15.1601V21.9961H22.8235Z" fill="#E4E5E7"/>
</svg>
