<svg width="929" height="464" viewBox="0 0 929 464" fill="none" xmlns="http://www.w3.org/2000/svg">
<path fill-rule="evenodd" clip-rule="evenodd" d="M905.569 302.171C886.147 332.571 854.427 360.289 813.221 383.843C817.566 371.606 821.099 360.466 823.778 350.006C851.793 337.437 879.17 319.469 898.881 297.806C901.085 299.278 903.313 300.733 905.569 302.171ZM928.346 232.499C928.1 291.06 884.482 344.526 812.707 385.287L812.706 385.29L812.703 385.289C784.408 401.357 751.737 415.451 715.623 427.104L715.715 427.46C713.731 427.97 711.755 428.469 709.789 428.956C638.652 451.166 554.612 464 464.58 464L464.399 464L464.353 464L464.277 464C374.197 463.971 290.124 451.095 218.986 428.835L218.667 429.408C217.751 428.898 216.839 428.386 215.932 427.872C178.943 416.096 145.515 401.771 116.637 385.391L116.551 385.364L116.557 385.346C74.7827 361.638 42.5366 333.629 22.8152 302.816C22.5372 302.725 22.2589 302.633 21.9803 302.541L22.2062 301.858C8.40276 279.962 0.915592 256.664 0.813894 232.499H0.351562V231.499H0.813903C0.916752 207.157 8.51349 183.695 22.5113 161.66L22.4455 161.461L22.6893 161.381C42.4086 130.476 74.7244 102.386 116.617 78.6205L116.551 78.4108C116.875 78.3096 117.199 78.2086 117.523 78.1078C146.429 61.8061 179.855 47.5553 216.818 35.847C217.278 35.5856 217.739 35.3246 218.201 35.064L218.367 35.3587C289.637 12.9801 373.935 0.0289566 464.277 4.84973e-05L464.353 0L464.399 1.73936e-05L464.58 0C557.239 0 643.551 13.5936 715.982 37.0118C716.972 37.2649 717.966 37.5207 718.961 37.7794L718.912 37.9671C753.762 49.4217 785.34 63.1626 812.795 78.7633L812.935 78.7134L812.993 78.8756C882.549 118.45 925.588 169.973 928.219 226.494C928.307 227.973 928.352 229.461 928.352 230.955C928.352 231.137 928.351 231.318 928.35 231.499V232.499H928.346ZM813.507 80.3202C854.62 103.866 886.264 131.563 905.635 161.932C903.538 163.271 901.464 164.624 899.411 165.991C879.634 144.551 852.03 126.887 824.068 114.499C821.419 103.924 817.886 92.6712 813.507 80.3202ZM812.176 79.5611C805.701 75.885 798.994 72.3113 792.066 68.8456C768.918 57.2657 743.324 46.9046 715.703 37.9729C674.562 27.4691 637.28 21.8459 611.527 21.8459C604.125 21.8459 598.754 22.4918 594.99 23.9188C591.256 25.3341 589.125 27.5068 588.138 30.5977C587.136 33.7337 587.292 37.8747 588.305 43.254C589.247 48.2586 590.918 54.2699 593.021 61.4439C596.315 62.3569 599.665 63.3487 603.063 64.4177C627.904 72.233 655.35 84.1877 682.276 99.7107C690.277 104.323 698.233 109.251 706.063 114.481C713.17 101.278 725.083 94.6536 745.023 94.6536C766.103 94.6536 794.636 101.615 822.908 113.988C820.212 103.363 816.624 92.0302 812.176 79.5611ZM705.596 115.371C697.758 110.134 689.791 105.197 681.777 100.577C654.91 85.0883 627.531 73.1638 602.763 65.3717C599.58 64.3704 596.441 63.4376 593.353 62.5743C593.397 62.7258 593.442 62.8778 593.487 63.0303C593.876 64.3495 594.277 65.7057 594.69 67.1C599.957 84.8809 607.052 108.839 612.304 140.621C639.288 144.804 666.998 153.206 696.213 165.83C697.157 144.001 699.567 127.171 705.596 115.371ZM591.888 61.1323C589.866 54.218 588.248 48.3567 587.322 43.4391C586.302 38.0229 586.105 33.6762 587.185 30.2935C588.28 26.8657 590.665 24.4886 594.635 22.9837C598.574 21.4905 604.095 20.8459 611.527 20.8459C634.06 20.8459 665.323 25.128 700.229 33.1819C634.159 13.6132 557.504 2.01787 475.568 1.0639C499.581 5.64343 521.464 24.7771 538.972 53.99C539.119 53.9805 539.265 53.9711 539.412 53.9618C553.44 53.0778 571.569 55.5904 591.888 61.1323ZM539.547 54.9553C553.555 54.0851 571.758 56.6313 592.218 62.2596C592.32 62.6082 592.424 62.9593 592.528 63.313C592.908 64.6026 593.3 65.9276 593.703 67.2888L593.731 67.3823C598.975 85.0869 606.028 108.901 611.264 140.462C598.204 138.489 585.312 137.505 572.499 137.51C571.882 137.51 571.264 137.513 570.647 137.518C563.481 105.51 552.785 77.3337 539.547 54.9553ZM537.852 54.0663C517.792 20.7911 492.148 1.02147 464.398 1.00002L464.278 1.00005C447.399 1.02173 431.3 8.34954 416.764 21.5784C450.698 21.7642 477.071 37.1631 496.672 62.1789C509.774 57.6753 523.411 55.0916 537.852 54.0663ZM497.321 63.0137C510.394 58.5547 524.005 56.0149 538.428 55.0286C540.954 59.2743 543.39 63.7355 545.729 68.3995C555.659 88.2007 563.802 111.595 569.624 137.528C556.994 137.679 544.437 138.793 531.871 140.868C524.575 110.578 513.202 83.6111 497.321 63.0137ZM495.675 62.5259C476.128 37.71 449.88 22.5767 416.142 22.5767C415.988 22.5767 415.835 22.5769 415.681 22.5773C403.501 33.9684 392.444 49.5224 382.977 68.3995C378.882 76.5653 375.091 85.3422 371.641 94.6561C392.951 94.8068 410.073 101.931 423.518 113.791C429.366 107.255 435.216 101.34 441.099 96.0029C458.725 80.012 476.64 69.2247 495.675 62.5259ZM424.264 114.457C430.09 107.946 435.915 102.056 441.771 96.7435C459.394 80.7553 477.295 70.0048 496.325 63.3577C501.888 70.5372 506.902 78.5083 511.383 87.1424C519.68 103.129 526.142 121.371 530.882 141.033C505.745 145.284 480.558 153.38 454.64 165.307C448.167 144.909 438.238 127.095 424.264 114.457ZM422.853 114.537C409.495 102.756 392.477 95.725 371.273 95.6542C361.75 121.654 354.876 151.784 351.456 184.459C358.328 184.693 364.535 187.044 369.788 190.982C388.023 159.26 405.437 134.141 422.853 114.537ZM370.587 191.598C388.825 159.859 406.221 134.764 423.599 115.203C430.822 121.737 436.957 129.677 442.088 138.662C446.792 146.902 450.651 156.018 453.725 165.73C430.668 176.413 407.028 190.125 382.327 206.854C379.428 200.685 375.435 195.452 370.587 191.598ZM369.282 191.863C364.131 187.977 358.053 185.672 351.353 185.456C349.902 199.626 349.101 214.27 349.014 229.259C355.906 215.885 362.649 203.437 369.282 191.863ZM349.615 230.275C356.578 216.746 363.386 204.167 370.08 192.483C374.785 196.252 378.672 201.368 381.494 207.419C371.069 214.501 360.455 222.12 349.615 230.275ZM706.433 115.932C737 136.466 765.548 161.583 787.161 190.378C782.276 194.817 778.708 201.153 776.354 208.349C748.526 191.204 722.303 177.174 697.195 166.256C697.818 151.555 699.096 139.172 701.667 129.078C702.926 124.132 704.492 119.754 706.433 115.932ZM787.916 189.717C766.201 160.806 737.545 135.616 706.898 115.04C709.293 110.567 712.234 106.891 715.839 103.99C722.687 98.4789 732.069 95.6536 745.023 95.6536C766.116 95.6536 794.816 102.693 823.216 115.216C826.919 130.117 828.846 143.648 828.903 157.013C828.95 167.86 827.765 178.607 825.292 189.897C818.624 185.993 811.346 183.747 804.355 183.747C797.799 183.747 792.343 185.974 787.916 189.717ZM787.762 191.182C785.244 193.486 783.081 196.322 781.257 199.551C779.647 202.401 778.307 205.55 777.23 208.889C788.396 215.786 799.82 223.183 811.534 231.08C805.219 217.129 797.158 203.805 787.762 191.182ZM812.264 230.268C805.933 216.368 797.882 203.094 788.515 190.519C792.796 186.884 798.052 184.747 804.355 184.747C811.24 184.747 818.453 186.996 825.064 190.923C822.317 203.118 818.074 215.965 812.264 230.268ZM826.197 190.439C833.06 194.648 839.222 200.616 843.68 207.686C846.453 205.525 849.212 203.364 851.964 201.207L851.969 201.203L851.974 201.199L851.979 201.196C854.284 199.39 856.585 197.587 858.887 195.79C871.788 185.718 884.72 175.825 898.569 166.553C887.429 154.5 873.776 143.625 858.926 134.204C847.855 127.18 836.149 120.985 824.373 115.729C827.969 130.394 829.846 143.775 829.903 157.009C829.951 168.044 828.732 178.967 826.197 190.439ZM813.245 230.51C818.99 216.351 823.21 203.596 825.965 191.472C829.226 193.501 832.328 195.94 835.155 198.718C838.078 201.59 840.696 204.813 842.888 208.304C833.309 215.763 823.548 223.221 813.245 230.51ZM822.611 350.526C819.887 361.033 816.3 372.25 811.89 384.601C805.504 388.22 798.892 391.74 792.066 395.154C767.199 407.594 739.51 418.627 709.519 427.993C671.678 437.361 637.151 442.39 611.758 442.39C604.269 442.39 598.828 441.742 595.009 440.312C591.22 438.892 589.051 436.714 588.039 433.618C587.011 430.478 587.151 426.332 588.158 420.947C589.131 415.737 590.9 409.439 593.128 401.876C596.312 400.989 599.548 400.029 602.828 398.997C627.67 391.182 655.116 379.227 682.042 363.704C689.994 359.12 697.903 354.223 705.687 349.029C712.703 362.77 724.559 369.806 744.559 369.806C766.553 369.806 794.847 362.826 822.611 350.526ZM592.383 400.869L592.326 401.061C571.998 406.68 553.883 409.266 539.872 408.492C553.013 386.114 563.624 358.002 570.732 326.099C571.542 326.107 572.353 326.111 573.163 326.111C585.775 326.111 598.456 325.164 611.285 323.27C606.031 354.91 598.935 378.8 593.657 396.572L593.657 396.573L593.656 396.575L593.656 396.576L593.655 396.577C593.218 398.049 592.793 399.479 592.383 400.869ZM593.87 399.368C593.733 399.831 593.597 400.29 593.463 400.744C596.44 399.908 599.464 399.007 602.528 398.043C627.296 390.251 654.675 378.327 681.542 362.838C689.514 358.242 697.44 353.333 705.238 348.127C699.468 336.234 697.123 319.53 696.194 298.214C667.082 310.714 639.371 319.015 612.324 323.114C607.054 354.976 599.916 379.009 594.615 396.857L594.615 396.859L594.615 396.859C594.362 397.71 594.114 398.546 593.87 399.368ZM715.465 360.086C711.845 357.031 708.905 353.162 706.524 348.469C737.165 327.915 765.825 302.748 787.557 273.863C792.148 277.914 797.768 280.259 804.355 280.259C811.36 280.259 818.653 277.956 825.332 273.973C827.841 285.409 829.008 296.263 828.906 307.22C828.781 320.653 826.749 334.255 822.928 349.291C795.039 361.744 766.58 368.806 744.559 368.806C731.616 368.806 722.27 365.827 715.465 360.086ZM706.077 347.565C736.637 327.05 765.186 301.956 786.815 273.185C782.253 268.87 778.763 262.821 776.411 255.71C748.629 272.873 722.376 286.901 697.177 297.791C697.784 312.003 699.01 324.121 701.437 334.117C702.661 339.156 704.185 343.637 706.077 347.565ZM804.355 279.259C798.021 279.259 792.602 277.005 788.158 273.061C797.588 260.423 805.689 247.078 812.051 233.101C818.006 247.64 822.327 260.639 825.104 272.944C818.48 276.953 811.252 279.259 804.355 279.259ZM787.418 272.38C796.619 260.038 804.544 247.025 810.809 233.41C799.378 241.147 788.213 248.4 777.285 255.169C778.489 258.857 779.999 262.251 781.804 265.254C783.44 267.977 785.314 270.374 787.418 272.38ZM591.994 402.19C571.596 407.78 553.389 410.327 539.3 409.461C521.737 438.983 499.731 458.328 475.568 462.936C554.765 462.014 629.029 451.15 693.569 432.753C662.066 439.696 633.578 443.39 611.758 443.39C604.239 443.39 598.651 442.744 594.658 441.248C590.636 439.742 588.211 437.362 587.088 433.929C585.979 430.54 586.161 426.186 587.175 420.763C588.133 415.636 589.849 409.486 591.994 402.19ZM545.729 395.6C543.491 400.064 541.163 404.343 538.753 408.424C523.21 407.406 508.612 404.594 494.617 399.534C510.323 378.946 522.447 352.307 530.497 322.471C543.558 324.702 556.599 325.907 569.71 326.087C563.883 352.174 555.709 375.701 545.729 395.6ZM538.18 409.388C522.623 408.328 508.001 405.471 493.978 400.366C473.864 426.363 447.957 442.495 417.273 442.882C431.676 455.82 447.596 462.979 464.278 463L464.398 463C492.299 462.978 518.071 442.992 538.18 409.388ZM416.182 441.889C446.848 441.875 472.807 425.986 492.995 400.004C474.868 393.254 457.734 382.716 440.864 367.412C434.989 362.082 429.145 356.173 423.303 349.646C409.283 362.077 391.926 369.182 371.639 369.339C375.089 378.655 378.881 387.433 382.977 395.6C392.574 414.736 403.805 430.457 416.182 441.889ZM441.536 366.671C458.4 381.97 475.517 392.473 493.635 399.174C498.646 392.633 503.296 385.465 507.569 377.763C516.662 361.371 524.028 342.583 529.508 322.3C504.877 317.995 480.171 310.045 454.795 298.455C447.977 319.331 437.602 336.673 424.048 348.978C429.868 355.481 435.687 361.365 441.536 366.671ZM438.883 329.913C434.311 336.864 429.135 343.009 423.383 348.232C406.134 328.82 388.866 303.955 370.776 272.553C375.577 268.634 379.513 263.314 382.37 257.071C407.068 273.744 430.755 287.399 453.88 298.035C450.01 309.915 444.985 320.633 438.883 329.913ZM351.482 279.784C358.46 279.633 364.716 277.233 369.984 273.181C388.069 304.562 405.353 329.447 422.638 348.9C408.7 361.258 391.445 368.267 371.271 368.341C361.773 342.407 354.91 312.363 351.482 279.784ZM376.609 264.939C374.721 267.491 372.599 269.755 370.271 271.674C363.535 259.946 356.683 247.31 349.676 233.713C360.497 241.846 371.104 249.443 381.53 256.503C380.142 259.562 378.492 262.393 376.609 264.939ZM369.481 272.307C362.783 260.65 355.974 248.102 349.013 234.609C349.097 249.729 349.907 264.499 351.378 278.786C358.199 278.656 364.322 276.308 369.481 272.307ZM860.155 328.99C848.672 336.54 836.447 343.181 824.092 348.768C827.802 333.977 829.783 320.528 829.906 307.229C830.01 296.08 828.808 285.045 826.235 273.422C833.001 269.197 839.082 263.247 843.519 256.233C846.38 258.47 849.225 260.708 852.063 262.94L852.064 262.94C854.301 264.7 856.535 266.456 858.77 268.208C871.529 278.206 884.32 288.03 898.042 297.244C887.332 308.992 874.332 319.668 860.155 328.99ZM835.15 265.06C832.335 267.863 829.248 270.329 826.003 272.387C823.261 260.344 819.053 247.65 813.307 233.531C823.547 240.78 833.232 248.197 842.727 255.614C840.567 259.043 838.004 262.219 835.15 265.06ZM696.149 297.145C667.09 309.651 639.452 317.959 612.495 322.077C616.555 297.205 619.464 267.602 619.488 232.499H695.656C695.654 237.408 695.643 242.192 695.632 246.849V246.853V246.857V246.861V246.864V246.868V246.871V246.875V246.878V246.881V246.884C695.587 265.736 695.547 282.511 696.149 297.145ZM697.132 296.721C722.232 285.849 748.395 271.853 776.095 254.73C774.005 248.029 772.901 240.438 772.838 232.499H696.656C696.654 237.428 696.643 242.228 696.632 246.899V246.903C696.593 263.109 696.558 277.761 696.931 290.842C696.988 292.839 697.055 294.799 697.132 296.721ZM776.974 254.186C787.859 247.439 798.982 240.21 810.371 232.499H773.838C773.9 240.261 774.968 247.659 776.974 254.186ZM573.163 325.111C585.827 325.111 598.565 324.152 611.456 322.233C615.536 297.341 618.464 267.69 618.488 232.499H580.7C580.665 265.428 577.19 296.747 570.953 325.101C571.69 325.108 572.426 325.111 573.163 325.111ZM579.7 232.499C579.665 265.444 576.18 296.761 569.932 325.09C556.836 324.921 543.808 323.725 530.757 321.501C538.117 293.855 541.992 263.503 541.992 232.697L541.992 232.499H579.7ZM540.992 232.697C540.992 263.462 537.118 293.757 529.768 321.33C505.168 317.039 480.48 309.097 455.105 297.497C461.136 278.635 464.288 256.937 464.288 233.493C464.288 233.162 464.288 232.83 464.286 232.499H540.992L540.992 232.697ZM463.288 233.493C463.288 256.81 460.158 278.361 454.189 297.077C431.112 286.454 407.46 272.811 382.784 256.144C385.824 249.145 387.534 241.049 387.627 232.499H463.286C463.288 232.83 463.288 233.162 463.288 233.493ZM386.627 232.499C386.535 240.855 384.875 248.751 381.941 255.574C371.402 248.433 360.675 240.741 349.726 232.499H386.627ZM695.657 231.499L695.657 230.955C695.657 226.155 695.648 221.481 695.64 216.934C695.606 198.087 695.576 181.406 696.168 166.9C667.006 154.27 639.368 145.862 612.474 141.66C616.538 166.577 619.457 196.263 619.488 231.499H695.657ZM611.435 141.5C615.519 166.438 618.457 196.172 618.488 231.499H580.7C580.665 198.422 577.159 166.971 570.869 138.516C571.412 138.512 571.956 138.51 572.5 138.51C585.364 138.505 598.312 139.501 611.435 141.5ZM697.151 167.327C722.16 178.227 748.294 192.225 776.042 209.331C773.899 216.279 772.859 223.969 772.835 231.499H696.657L696.657 230.955C696.657 226.15 696.648 221.472 696.64 216.922V216.92V216.918V216.916V216.915V216.913V216.911V216.91V216.908V216.906V216.905V216.903V216.901V216.9V216.898V216.896V216.895V216.893C696.609 199.996 696.582 184.861 697.004 171.47C697.048 170.07 697.097 168.689 697.151 167.327ZM776.922 209.874C774.865 216.641 773.859 224.134 773.835 231.499H810.366C798.95 223.813 787.811 216.605 776.922 209.874ZM569.847 138.525C557.222 138.666 544.67 139.772 532.104 141.843C538.726 169.738 541.911 200.41 541.99 231.499H579.7C579.665 198.405 576.148 166.955 569.847 138.525ZM531.115 142.008C537.726 169.824 540.911 200.439 540.99 231.499H464.281C464.119 208.938 461.192 186.377 454.942 166.269C480.854 154.334 506.017 146.246 531.115 142.008ZM349.652 231.499C360.628 223.229 371.369 215.51 381.914 208.343C384.912 215.131 386.595 223.034 386.63 231.499H349.652ZM382.749 207.776C407.423 191.056 431.023 177.361 454.026 166.692C460.211 186.645 463.119 209.053 463.281 231.499H387.63C387.595 222.863 385.858 214.751 382.749 207.776ZM813.579 232.499C823.917 239.806 833.687 247.285 843.255 254.758C847.291 248.063 849.789 240.449 849.934 232.499H813.579ZM849.939 231.499H813.579C823.955 224.167 833.782 216.661 843.414 209.161C847.433 215.856 849.885 223.49 849.939 231.499ZM850.939 231.499C850.885 223.244 848.347 215.4 844.208 208.542C846.981 206.382 849.737 204.222 852.487 202.068L852.566 202.006L852.598 201.981L852.598 201.98L852.599 201.98L852.599 201.98L852.641 201.947C854.931 200.153 857.216 198.362 859.502 196.578C872.441 186.477 885.39 176.572 899.254 167.298C915.271 184.861 925.936 204.893 927.221 226.548C927.297 228.194 927.339 229.845 927.346 231.499H850.939ZM850.934 232.499H927.336C926.866 255.81 915.784 277.531 898.72 296.495C884.986 287.28 872.181 277.447 859.387 267.42C857.154 265.671 854.922 263.916 852.685 262.157C849.817 259.901 846.942 257.64 844.049 255.378C848.205 248.52 850.789 240.695 850.934 232.499ZM23.4688 301.979C9.48756 280.028 1.91666 256.682 1.8139 232.499H77.8764C77.8798 233.226 77.8879 233.953 77.9008 234.68C78.4237 264.28 86.7904 293.729 102.742 321.678C79.2004 318.154 53.093 311.721 23.4688 301.979ZM24.3275 303.313C43.9846 333.533 75.8146 361.074 117.036 384.468C135.651 390.279 154.598 395.421 172.733 399.408C142.453 376.185 119.253 350.217 103.377 322.783C79.8742 319.321 53.8382 312.961 24.3275 303.313ZM104.641 322.967C120.729 350.533 144.272 376.621 175.041 399.91C187.847 402.666 200.221 404.831 211.756 406.231C226.034 407.964 239.012 408.524 249.928 407.589C260.509 406.682 269.102 404.375 275.064 400.415C240.21 380.932 207.575 354.834 185.061 322.305C161.117 326.816 134.994 327.321 104.641 322.967ZM184.441 321.404C168.672 298.346 157.987 272.08 155.172 242.673C154.845 239.262 154.654 235.87 154.593 232.499H78.8764C78.8798 233.22 78.8879 233.942 78.9006 234.663C79.4244 264.313 87.8707 293.841 104.002 321.864C134.411 326.299 160.533 325.854 184.441 321.404ZM185.515 321.201C169.691 298.175 158.979 271.943 156.167 242.577C155.844 239.199 155.654 235.839 155.594 232.499H232.568C232.596 235.579 232.755 238.675 233.053 241.783C234.927 261.335 241.911 279.914 252.289 296.538C237.083 304.762 221.824 311.426 205.786 316.231C199.179 318.21 192.439 319.874 185.515 321.201ZM186.136 322.1C205.472 349.903 232.26 372.999 261.533 391.261C266.291 394.23 271.114 397.07 275.98 399.781C289.509 390.083 296.061 373.736 304.353 348.178C284.17 335.566 265.888 318.004 252.822 297.386C237.544 305.653 222.202 312.357 206.073 317.189C199.57 319.137 192.94 320.78 186.136 322.1ZM253.703 296.908C261.757 309.605 271.809 321.143 283.08 331.07C289.897 337.075 297.153 342.483 304.671 347.197C304.837 346.683 305.004 346.165 305.172 345.643C306.114 342.714 307.081 339.671 308.086 336.509L308.093 336.487L308.1 336.465L308.115 336.417L308.118 336.406C313.669 318.933 320.364 297.861 330.284 272.648C324.578 268.568 319.538 262.95 315.828 256.341C294.084 272.117 273.937 285.878 253.703 296.908ZM253.169 296.06C273.393 285.041 293.547 271.272 315.342 255.456C311.675 248.617 309.424 240.77 309.299 232.499H233.568C233.596 235.548 233.754 238.612 234.049 241.688C235.908 261.086 242.847 279.538 253.169 296.06ZM316.159 254.863C312.603 248.189 310.424 240.546 310.299 232.499H346.493L343.881 234.436L343.877 234.44C334.282 241.556 325.082 248.38 316.159 254.863ZM316.642 255.749C325.581 249.255 334.791 242.424 344.39 235.304L347.081 233.308C340.751 247.049 335.35 259.824 330.662 271.688C327.982 269.749 325.447 267.456 323.134 264.867C320.686 262.127 318.494 259.064 316.642 255.749ZM1.81391 231.499C1.91677 207.388 9.44287 184.11 23.3439 162.218C52.9447 152.454 79.0389 145.987 102.571 142.42C86.0658 171.244 77.9147 201.408 77.8748 231.499H1.81391ZM103.209 141.312C79.7147 144.819 53.6901 151.213 24.2002 160.883C43.9871 130.37 76.1805 102.584 117.92 79.0316C136.578 73.2322 155.55 68.1113 173.687 64.1584C142.514 87.8418 119.091 113.964 103.209 141.312ZM78.8748 231.499C78.9154 201.368 87.1418 171.129 103.834 142.231C134.368 137.718 160.583 138.113 184.565 142.535C165.663 169.401 154.248 199.497 154.579 231.499H78.8748ZM104.476 141.126C134.96 136.694 161.18 137.151 185.201 141.636C207.367 110.488 239.584 83.7241 275.158 63.4225C269.193 59.4244 260.565 57.0974 249.928 56.1861C239.012 55.251 226.034 55.8109 211.756 57.544C200.512 58.9089 188.47 61.0005 176.009 63.6578C144.332 87.4153 120.568 113.655 104.476 141.126ZM241.387 86.7242C219.91 102.811 200.909 121.383 186.282 141.84C193.198 143.17 199.933 144.835 206.538 146.813C222.376 151.558 237.455 158.108 252.46 166.17C265.442 145.508 283.746 127.836 304.234 115.228C296.015 89.9355 289.472 73.7146 276.066 64.0561C264.04 70.8974 252.393 78.4801 241.387 86.7242ZM206.251 147.771C199.538 145.76 192.687 144.074 185.645 142.737C166.683 169.562 155.248 199.597 155.58 231.499H232.564C232.571 208.542 239.89 186.478 251.931 167.02C236.997 159 222 152.489 206.251 147.771ZM233.564 231.499C233.572 208.734 240.837 186.83 252.812 167.495C273.222 178.539 293.538 192.393 315.517 208.335C311.639 215.48 309.345 223.538 309.294 231.499H233.564ZM330.342 191.273C324.604 195.362 319.659 201.011 316.006 207.453C294.077 191.55 273.765 177.701 253.342 166.646C259.375 157.053 266.567 148.105 274.603 140.011C283.677 130.872 293.814 122.837 304.551 116.207C304.757 116.843 304.964 117.485 305.172 118.132C306.123 121.09 307.1 124.164 308.115 127.36L308.118 127.369C313.68 144.876 320.39 165.995 330.342 191.273ZM310.294 231.499C310.344 223.761 312.567 215.908 316.333 208.927C325.344 215.472 334.637 222.364 344.332 229.555L344.336 229.558L344.344 229.564L344.346 229.566L346.953 231.499H310.294ZM345.132 228.904L346.998 230.288C340.73 216.671 335.373 204.003 330.72 192.232C327.686 194.421 324.873 197.064 322.362 200.047C320.286 202.512 318.425 205.201 316.82 208.044C325.843 214.597 335.142 221.494 344.838 228.685L344.849 228.694L344.855 228.698L345.132 228.904ZM121.204 386.802C126.361 389.651 131.66 392.436 137.095 395.154C159.77 406.498 184.793 416.672 211.768 425.478C198.408 417.696 186.02 409.461 174.615 400.841C157.255 397.097 139.115 392.273 121.204 386.802ZM176.94 401.337C188.989 410.326 202.125 418.889 216.335 426.95C285.05 448.813 366.094 461.872 453.108 462.93C439.9 460.405 427.337 453.476 415.793 442.888C380.217 442.796 325.936 428.641 276.043 400.96C269.859 405.234 260.911 407.652 250.013 408.585C239.005 409.528 225.953 408.962 211.636 407.224C200.702 405.896 189.022 403.885 176.94 401.337ZM276.945 400.317C326.093 427.497 379.415 441.509 414.709 441.881C397.138 425.326 381.979 400.256 370.574 369.341C349.269 369.252 326.249 361.672 305.229 348.721C297.065 373.863 290.476 390.399 276.945 400.317ZM305.546 347.742C326.37 360.615 349.15 368.164 370.206 368.339C360.732 342.371 353.894 312.334 350.477 279.79C343.839 279.719 337.139 277.328 331.127 273.236C321.269 298.316 314.605 319.289 309.071 336.709C308.055 339.908 307.077 342.987 306.124 345.949C305.93 346.551 305.738 347.149 305.546 347.742ZM331.503 272.282C336.21 260.357 341.638 247.511 348.009 233.684C348.064 249.124 348.875 264.205 350.373 278.788C343.932 278.693 337.39 276.333 331.503 272.282ZM175.587 62.7254C158.227 66.4348 140.067 71.2358 122.119 76.6943C126.987 74.0208 131.981 71.4037 137.095 68.8456C160.032 57.3709 185.372 47.0928 212.705 38.2165C199.317 46.0275 186.947 54.2161 175.587 62.7254ZM217.221 36.7685C203.003 44.8607 189.908 53.3703 177.924 62.2316C189.657 59.7811 200.999 57.8424 211.636 56.5513C225.953 54.8134 239.005 54.2468 250.013 55.1898C260.96 56.1276 269.939 58.5624 276.126 62.8725C321.795 37.0043 372.879 21.7813 415.287 21.5788C426.97 10.7281 439.707 3.63239 453.108 1.06967C366.468 2.12301 285.747 15.0749 217.221 36.7685ZM414.215 22.5871C372.341 23.037 322.073 38.0757 277.021 63.5147C290.436 73.3908 297.017 89.8 305.111 114.692C325.83 102.126 348.724 94.7379 370.575 94.6544C381.874 64.0314 396.855 39.1438 414.215 22.5871ZM370.208 95.6565C348.604 95.8216 325.948 103.182 305.428 115.669C305.522 115.958 305.615 116.248 305.709 116.539C305.847 116.965 305.985 117.394 306.124 117.826C307.077 120.788 308.055 123.867 309.071 127.066C314.616 144.52 321.295 165.542 331.186 190.687C336.968 186.773 343.509 184.439 350.316 184.439L350.453 184.44C353.862 151.805 360.711 121.686 370.208 95.6565ZM350.349 185.439C348.874 199.881 348.071 214.811 348.01 230.093C341.665 216.322 336.255 203.524 331.561 191.641C337.249 187.746 343.67 185.439 350.316 185.439L350.349 185.439ZM906.104 301.327C916.333 285.101 923.061 268.118 925.865 250.602C921.627 267.321 912.221 282.96 899.559 297.056C901.717 298.496 903.897 299.92 906.104 301.327ZM924.943 208.337C920.414 193.373 911.624 179.404 900.095 166.737C902.099 165.403 904.124 164.083 906.17 162.777C915.375 177.404 921.736 192.645 924.943 208.337Z" fill="#191B1F"/>
</svg>
