<svg width="1022" height="207" viewBox="0 0 1022 207" fill="none" xmlns="http://www.w3.org/2000/svg">
<style>
.box {
  fill: #fafafa;
}
</style>
<rect x="7.46393" y="7.40393" width="281" height="192.322" rx="25.05" stroke="#191B1F" stroke-width="14" class="box" />
<path d="M91.1079 155.902C70.8557 155.902 60.7296 143.606 60.7296 118.833V62.9586H78.4502V116.121C78.4502 133.299 85.6832 141.436 98.5216 141.436C114.589 141.436 122.752 132.505 122.752 120.069V62.9586H140.473V153.37H122.752V137.863H122.209C115.089 147.505 107.089 155.902 91.1079 155.902Z" fill="#191B1F"/>
<path d="M204.828 60.4607C225.08 60.4607 235.206 72.7567 235.206 97.5295L235.206 153.404L217.485 153.404L217.485 100.242C217.485 83.0637 210.253 74.9266 197.414 74.9266C181.347 74.9266 173.184 83.8573 173.184 96.294L173.184 153.404L155.463 153.404L155.463 62.9923L173.184 62.9923L173.184 78.4993L173.726 78.4993C180.847 68.8573 188.847 60.4607 204.828 60.4607Z" fill="#191B1F"/>
<path d="M368.421 7.56479H589.544C598.635 7.56479 605.031 7.57023 610.025 7.9782C614.936 8.37948 617.87 9.13506 620.147 10.2951C624.86 12.6967 628.692 16.5289 631.094 21.2423C632.254 23.519 633.009 26.4529 633.411 31.3644C633.819 36.3576 633.824 42.7544 633.824 51.8447V155.285C633.824 164.375 633.819 170.772 633.411 175.765C633.009 180.677 632.254 183.611 631.094 185.887C628.692 190.601 624.86 194.433 620.147 196.835C617.87 197.995 614.936 198.75 610.025 199.151C605.031 199.559 598.635 199.565 589.544 199.565H368.421C359.331 199.565 352.934 199.559 347.941 199.151C343.029 198.75 340.095 197.995 337.819 196.835C333.105 194.433 329.273 190.601 326.872 185.887C325.712 183.611 324.956 180.677 324.555 175.765C324.147 170.772 324.141 164.375 324.141 155.285V51.8447C324.141 42.7544 324.147 36.3576 324.555 31.3644C324.956 26.4529 325.712 23.519 326.872 21.2423C329.273 16.5289 333.105 12.6967 337.819 10.2951C340.095 9.13506 343.029 8.37948 347.941 7.9782C352.934 7.57023 359.331 7.56479 368.421 7.56479Z" stroke="#191B1F" stroke-width="14" class="box"/>
<path d="M479.892 154.955C454.255 154.955 435.118 137.442 435.118 107.111C435.118 78.2248 453.533 59.2679 480.434 59.2679C506.432 59.2679 524.486 75.6972 524.486 105.125C524.486 107.653 524.305 109.639 524.125 111.444H452.269C453.172 130.04 464.004 141.053 480.614 141.053C493.433 141.053 502.64 134.734 505.709 122.999H523.222C519.792 143.581 502.821 154.955 479.892 154.955ZM452.811 100.251H506.612C506.251 84.0021 496.321 72.4475 480.073 72.4475C464.185 72.4475 453.894 84.3632 452.811 100.251Z" fill="#191B1F"/>
<path d="M408.669 152.951C392.962 152.951 383.935 144.827 383.935 129.12V76.2211H361.797V62.6805H383.935V41.4047H401.628V62.6805H427.626V76.2211H401.628V125.87C401.628 133.814 405.419 138.147 413.002 138.147H427.626V152.951H408.669Z" fill="#191B1F"/>
<path d="M536.563 153.058V62.7873H554.076L553.534 88.4242H554.437C557.867 74.342 565.269 61.1625 581.518 61.1625C584.407 61.1625 586.573 61.343 588.74 61.7041V79.7582H582.06C565.45 79.7582 554.076 88.4242 554.076 112.978V153.058H536.563Z" fill="#191B1F"/>
<path d="M713.781 7.56479H969.904C978.995 7.56479 985.392 7.57023 990.385 7.9782C995.296 8.37948 998.23 9.13506 1000.51 10.2951C1005.22 12.6967 1009.05 16.5289 1011.45 21.2423C1012.61 23.519 1013.37 26.4529 1013.77 31.3644C1014.18 36.3576 1014.18 42.7544 1014.18 51.8447V155.285C1014.18 164.375 1014.18 170.772 1013.77 175.765C1013.37 180.677 1012.61 183.611 1011.45 185.887C1009.05 190.601 1005.22 194.433 1000.51 196.835C998.23 197.995 995.296 198.75 990.385 199.151C985.392 199.559 978.995 199.565 969.905 199.565H713.782C704.691 199.565 698.294 199.559 693.301 199.151C688.39 198.75 685.456 197.995 683.179 196.835C678.466 194.433 674.633 190.601 672.232 185.887C671.072 183.611 670.316 180.677 669.915 175.765C669.507 170.772 669.502 164.375 669.502 155.285V51.8447C669.502 42.7544 669.507 36.3576 669.915 31.3644C670.316 26.4529 671.072 23.519 672.232 21.2423C674.633 16.5289 678.466 12.6967 683.179 10.2951C685.456 9.13506 688.39 8.37948 693.301 7.9782C698.294 7.57023 704.691 7.56479 713.781 7.56479Z" stroke="#191B1F" stroke-width="14" class="box" />
<path d="M852.127 153.658C826.49 153.658 807.353 136.145 807.353 105.815C807.353 76.9279 825.768 57.9711 852.669 57.9711C878.667 57.9711 896.721 74.4003 896.721 103.829C896.721 106.356 896.54 108.342 896.36 110.148H824.504C825.407 128.743 836.24 139.756 852.849 139.756C865.668 139.756 874.876 133.437 877.945 121.702H895.457C892.027 142.284 875.056 153.658 852.127 153.658ZM825.046 98.954H878.847C878.486 82.7052 868.557 71.1506 852.308 71.1506C836.42 71.1506 826.129 83.0663 825.046 98.954Z" fill="#191B1F"/>
<path d="M947.67 152.951C931.963 152.951 922.936 144.827 922.936 129.12V76.2211H900.798V62.6805H922.936V41.4047H940.629V62.6805H966.627V76.2211H940.629V125.87C940.629 133.814 944.42 138.147 952.003 138.147H966.627V152.951H947.67Z" fill="#191B1F"/>
<path d="M765.655 60.7133C785.908 60.7133 796.034 73.0093 796.034 97.7821L796.034 153.656H778.313L778.313 100.494C778.313 83.3162 771.08 75.1791 758.242 75.1791C742.174 75.1791 734.011 84.1099 734.011 96.5465L734.011 153.656H716.291L716.291 63.2448L734.011 63.2448L734.011 78.7518H734.554C741.674 69.1099 749.674 60.7133 765.655 60.7133Z" fill="#191B1F"/>
</svg>
