<svg xmlns="http://www.w3.org/2000/svg" fill="none" class="unternet-wordmark-svg-root" viewBox="0 0 1018 219">
  <style>
    :root {
      --bg-color: #E4E5E7;  
      --text-color: #333; 
      --stroke-color: #333; 
    }
    .unternet-wordmark-svg-stroke { 
      stroke: var(--stroke-color); 
    }
    .unternet-wordmark-svg-bg { 
      fill: var(--bg-color); 
    }
    .unternet-wordmark-svg-grapheme { 
      fill: var(--text-color); 
    }
    .unternet-wordmark-svg-pronunciation { 
      fill: var(--text-color); 
    }
  </style>
  <g class="unternet-wordmark-svg-syllable syllable-un">
    <!-- bg -->
    <path class="unternet-wordmark-svg-bg" d="M7.15 52.07c0-9.1 0-15.49.41-20.48.4-4.91 1.16-7.85 2.32-10.12a25.05 25.05 0 0 1 10.95-10.95c2.27-1.16 5.2-1.92 10.12-2.32 5-.4 11.39-.41 20.48-.41h189.44c9.09 0 15.49 0 20.48.41 4.91.4 7.84 1.16 10.12 2.32l3.18-6.24-3.18 6.24a25.05 25.05 0 0 1 10.95 10.95c1.16 2.27 1.91 5.2 2.31 10.12.41 5 .42 11.39.42 20.48V167.5c0 9.09 0 15.49-.41 20.48-.4 4.91-1.16 7.84-2.32 10.12a25.05 25.05 0 0 1-10.95 10.95c-2.28 1.16-5.21 1.91-10.12 2.32-5 .4-11.4.4-20.48.4H51.43c-9.1 0-15.49 0-20.48-.4-4.91-.4-7.85-1.16-10.12-2.32A25.05 25.05 0 0 1 9.88 198.1c-1.16-2.28-1.92-5.2-2.32-10.12-.4-5-.41-11.4-.41-20.48V52.07Z"/>
    <!-- stroke -->
    <path class="unternet-wordmark-svg-stroke" stroke-width="14" d="M7.15 52.07c0-9.1 0-15.49.41-20.48.4-4.91 1.16-7.85 2.32-10.12a25.05 25.05 0 0 1 10.95-10.95c2.27-1.16 5.2-1.92 10.12-2.32 5-.4 11.39-.41 20.48-.41h189.44c9.09 0 15.49 0 20.48.41 4.91.4 7.84 1.16 10.12 2.32l3.18-6.24-3.18 6.24a25.05 25.05 0 0 1 10.95 10.95c1.16 2.27 1.91 5.2 2.31 10.12.41 5 .42 11.39.42 20.48V167.5c0 9.09 0 15.49-.41 20.48-.4 4.91-1.16 7.84-2.32 10.12a25.05 25.05 0 0 1-10.95 10.95c-2.28 1.16-5.21 1.91-10.12 2.32-5 .4-11.4.4-20.48.4H51.43c-9.1 0-15.49 0-20.48-.4-4.91-.4-7.85-1.16-10.12-2.32A25.05 25.05 0 0 1 9.88 198.1c-1.16-2.28-1.92-5.2-2.32-10.12-.4-5-.41-11.4-.41-20.48V52.07Z"/>
    <!-- grapheme -->
    <!-- u -->
    <path class="unternet-wordmark-svg-grapheme" d="M58.4 130.26c0 24.78 10.13 37.07 30.38 37.07 15.99 0 23.99-8.4 31.1-18.04h.55v15.51h17.72V74.39h-17.72v57.1c0 12.44-8.16 21.38-24.23 21.38-12.84 0-20.07-8.14-20.07-25.32V74.4H58.4v55.87Z"/>
    <!-- n -->
    <path class="unternet-wordmark-svg-grapheme" d="M232.88 108.96c0-24.77-10.12-37.07-30.38-37.07-15.98 0-23.98 8.4-31.1 18.04h-.54v-15.5h-17.72v90.4h17.72v-57.1c0-12.44 8.16-21.37 24.23-21.37 12.84 0 20.07 8.13 20.07 25.31v53.16h17.72v-55.87Z"/>
    <!-- pronunciation -->
    <path class="unternet-wordmark-svg-pronunciation" d="M135.43 34.48h1.41l-3.3 8.46h-1.4l3.29-8.46Z"/>
    <path class="unternet-wordmark-svg-pronunciation" d="M137.93 33.84h1.22v4.21h-1.22v-4.21Z"/>
    <path class="unternet-wordmark-svg-pronunciation" d="M146.56 42.94h-1.35l-1.85-5.2-1.8 5.2h-1.34l2.45-6.5h1.44l2.45 6.5Z"/>
    <path class="unternet-wordmark-svg-pronunciation" d="M152.1 39.1c0-.59-.14-1-.42-1.26-.3-.27-.68-.4-1.16-.4-.3 0-.58.07-.83.2a1.53 1.53 0 0 0-.8 1.37l-.41-.08c0-.56.13-1.03.38-1.42a2.55 2.55 0 0 1 2.1-1.24c.47 0 .88.1 1.24.3.36.2.64.48.85.86.2.38.31.85.31 1.4v4.11h-1.25V39.1Zm-4.46-2.66h1.25v6.5h-1.25v-6.5Z"/>
    <path class="unternet-wordmark-svg-pronunciation" d="M157.75 34.48h1.4l-3.3 8.46h-1.4l3.3-8.46Z"/>
  </g>
  <!-- ter -->
  <g class="unternet-wordmark-svg-syllable syllable-ter">
    <!-- bg -->
    <path class="unternet-wordmark-svg-bg"  d="M320.83 52.07c0-9.1 0-15.49.41-20.48.4-4.91 1.16-7.85 2.32-10.12a25.05 25.05 0 0 1 10.95-10.95c2.27-1.16 5.2-1.92 10.12-2.32 5-.4 11.39-.41 20.48-.41h220.44c9.09 0 15.49 0 20.48.41 4.91.4 7.84 1.16 10.12 2.32l3.18-6.24-3.18 6.24a25.05 25.05 0 0 1 10.95 10.95c1.16 2.27 1.91 5.2 2.31 10.12.41 5 .42 11.39.42 20.48V167.5c0 9.09 0 15.49-.42 20.48-.4 4.91-1.15 7.84-2.31 10.12a25.06 25.06 0 0 1-10.95 10.95c-2.28 1.16-5.21 1.91-10.12 2.32-5 .4-11.4.4-20.48.4H365.1c-9.1 0-15.49 0-20.48-.4-4.91-.4-7.85-1.16-10.12-2.32a25.05 25.05 0 0 1-10.95-10.95c-1.16-2.28-1.92-5.2-2.32-10.12-.4-5-.41-11.4-.41-20.48V52.07Z"/>
    <!-- stroke -->
    <path class="unternet-wordmark-svg-stroke" stroke-width="14" d="M320.83 52.07c0-9.1 0-15.49.41-20.48.4-4.91 1.16-7.85 2.32-10.12a25.05 25.05 0 0 1 10.95-10.95c2.27-1.16 5.2-1.92 10.12-2.32 5-.4 11.39-.41 20.48-.41h220.44c9.09 0 15.49 0 20.48.41 4.91.4 7.84 1.16 10.12 2.32l3.18-6.24-3.18 6.24a25.05 25.05 0 0 1 10.95 10.95c1.16 2.27 1.91 5.2 2.31 10.12.41 5 .42 11.39.42 20.48V167.5c0 9.09 0 15.49-.42 20.48-.4 4.91-1.15 7.84-2.31 10.12a25.06 25.06 0 0 1-10.95 10.95c-2.28 1.16-5.21 1.91-10.12 2.32-5 .4-11.4.4-20.48.4H365.1c-9.1 0-15.49 0-20.48-.4-4.91-.4-7.85-1.16-10.12-2.32a25.05 25.05 0 0 1-10.95-10.95c-1.16-2.28-1.92-5.2-2.32-10.12-.4-5-.41-11.4-.41-20.48V52.07Z"/>
    <!-- grapheme -->
    <path class="unternet-wordmark-svg-grapheme"  d="M406.17 164.95c-15.7 0-24.74-8.13-24.74-23.83v-52.9H359.3V74.68h22.13V53.4h17.7v21.28h26v13.54h-26v49.65c0 7.94 3.79 12.27 11.37 12.27h14.63v14.8h-18.96Z"/>
    <path class="unternet-wordmark-svg-grapheme"  fill-rule="evenodd" d="M477.4 166.95c-25.64 0-44.78-17.51-44.78-47.84 0-28.89 18.41-47.84 45.31-47.84 26 0 44.06 16.42 44.06 45.85 0 2.53-.19 4.52-.37 6.32h-71.85c.9 18.6 11.73 29.61 28.34 29.61 12.82 0 22.03-6.32 25.1-18.05h17.51c-3.43 20.58-20.4 31.95-43.33 31.95Zm-27.09-54.7h53.8c-.36-16.25-10.29-27.8-26.54-27.8-15.89 0-26.18 11.91-27.26 27.8Z" clip-rule="evenodd"/>
    <path class="unternet-wordmark-svg-grapheme"  d="M534.06 74.78v90.28h17.52v-40.08c0-24.56 11.37-33.22 27.98-33.22h6.68V73.7a42.08 42.08 0 0 0-7.22-.54c-16.25 0-23.65 13.18-27.08 27.26h-.9l.54-25.64h-17.52Z"/>
    <!-- pronunciation -->
    <path class="unternet-wordmark-svg-pronunciation" d="M465.9 37.63h1.42l-3.3 8.46h-1.4l3.29-8.46Z"/>
    <path class="unternet-wordmark-svg-pronunciation" d="M467.8 39.58h3.54v1.06h-3.54v-1.06Zm3.54 5.4v1.1h-.63a2.2 2.2 0 0 1-.9-.17 1.49 1.49 0 0 1-.64-.58c-.16-.27-.24-.6-.24-1.03v-6.4h1.26v6.23c0 .33.06.56.18.68.12.11.28.17.48.17h.5Z"/>
    <path class="unternet-wordmark-svg-pronunciation" d="M478.5 42.84c0 .68-.12 1.28-.37 1.79-.25.5-.6.88-1.07 1.15-.47.27-1.02.41-1.65.41-.61 0-1.15-.14-1.63-.4a3.02 3.02 0 0 1-1.12-1.15 3.4 3.4 0 0 1-.39-1.65v-.48h5.06v.92h-3.71c.03.36.12.67.28.94a1.72 1.72 0 0 0 1.5.83c.4 0 .73-.09 1-.26s.47-.44.6-.78c.14-.36.21-.8.21-1.32 0-.77-.16-1.34-.48-1.73-.32-.4-.8-.6-1.41-.6-.47 0-.86.1-1.14.3-.28.21-.46.5-.53.86h-1.34a2.5 2.5 0 0 1 .95-1.65 3.3 3.3 0 0 1 2.03-.56c.66 0 1.23.14 1.7.42.49.27.86.66 1.12 1.17.27.5.4 1.1.4 1.79Z"/>
    <path class="unternet-wordmark-svg-pronunciation" d="M483.1 40.77h-.34c-.33 0-.63.06-.91.2-.27.13-.49.3-.65.55-.15.22-.23.5-.23.8l-.43-.08c0-.58.1-1.07.33-1.49.22-.41.5-.73.84-.95.35-.23.7-.34 1.04-.34h.34v1.3Zm-3.4-1.19h1.27v6.5h-1.27v-6.5Z"/>
    <path class="unternet-wordmark-svg-pronunciation" d="M486.4 37.63h1.4l-3.3 8.46h-1.4l3.3-8.46Z"/>
  </g>
  <!-- net -->
  <g class="unternet-wordmark-svg-syllable syllable-net">
    <!-- bg -->
    <path class="unternet-wordmark-svg-bg" d="M665.5 52.07c0-9.1 0-15.49.41-20.48.4-4.91 1.16-7.85 2.32-10.12a25.05 25.05 0 0 1 10.95-10.95c2.27-1.16 5.2-1.92 10.12-2.32 5-.4 11.39-.41 20.48-.41h256.44c9.09 0 15.49 0 20.48.41 4.91.4 7.85 1.16 10.12 2.32l3.18-6.24-3.18 6.24a25.02 25.02 0 0 1 10.95 10.95c1.16 2.27 1.92 5.2 2.32 10.12.4 5 .41 11.39.41 20.48V167.5c0 9.09-.01 15.49-.41 20.48-.4 4.91-1.16 7.84-2.32 10.12a25.02 25.02 0 0 1-10.95 10.95c-2.27 1.16-5.2 1.91-10.12 2.32-5 .4-11.39.4-20.48.4H709.78c-9.09 0-15.49 0-20.48-.4-4.91-.4-7.85-1.16-10.12-2.32a25.05 25.05 0 0 1-10.95-10.95c-1.16-2.28-1.91-5.2-2.32-10.12-.4-5-.41-11.4-.41-20.48V52.07Z"/>
    <!-- stroke -->
    <path class="unternet-wordmark-svg-stroke" stroke-width="14" d="M665.5 52.07c0-9.1 0-15.49.41-20.48.4-4.91 1.16-7.85 2.32-10.12a25.05 25.05 0 0 1 10.95-10.95c2.27-1.16 5.2-1.92 10.12-2.32 5-.4 11.39-.41 20.48-.41h256.44c9.09 0 15.49 0 20.48.41 4.91.4 7.85 1.16 10.12 2.32l3.18-6.24-3.18 6.24a25.02 25.02 0 0 1 10.95 10.95c1.16 2.27 1.92 5.2 2.32 10.12.4 5 .41 11.39.41 20.48V167.5c0 9.09-.01 15.49-.41 20.48-.4 4.91-1.16 7.84-2.32 10.12a25.02 25.02 0 0 1-10.95 10.95c-2.27 1.16-5.2 1.91-10.12 2.32-5 .4-11.39.4-20.48.4H709.78c-9.09 0-15.49 0-20.48-.4-4.91-.4-7.85-1.16-10.12-2.32a25.05 25.05 0 0 1-10.95-10.95c-1.16-2.28-1.91-5.2-2.32-10.12-.4-5-.41-11.4-.41-20.48V52.07Z"/>
    <!-- grapheme -->
    <path class="unternet-wordmark-svg-grapheme"  d="M944.18 164.95c-15.71 0-24.74-8.13-24.74-23.83v-52.9H897.3V74.68h22.14V53.4h17.7v21.28h26v13.54h-26v49.65c0 7.94 3.79 12.27 11.37 12.27h14.62v14.8h-18.95Z"/>
    <path class="unternet-wordmark-svg-grapheme"  fill-rule="evenodd" d="M848.63 167.66c-25.63 0-44.77-17.52-44.77-47.85 0-28.88 18.41-47.84 45.31-47.84 26 0 44.06 16.43 44.06 45.86 0 2.52-.18 4.51-.36 6.31H821c.9 18.6 11.74 29.61 28.35 29.61 12.81 0 22.02-6.31 25.1-18.05h17.5c-3.43 20.58-20.4 31.96-43.33 31.96Zm-27.08-54.7h53.8c-.36-16.26-10.29-27.81-26.54-27.81-15.88 0-26.17 11.91-27.26 27.8Z" clip-rule="evenodd"/>
    <path class="unternet-wordmark-svg-grapheme"  d="M792.54 108.78c0-24.77-10.13-37.07-30.38-37.07-15.98 0-23.98 8.4-31.1 18.04h-.54v-15.5H712.8v90.4h17.72v-57.1c0-12.44 8.16-21.37 24.23-21.37 12.84 0 20.07 8.13 20.07 25.31v53.16h17.72v-55.87Z"/>
    <!-- pronunciation -->
    <path class="unternet-wordmark-svg-pronunciation" d="M828.21 37.63h1.41l-3.3 8.46h-1.4l3.3-8.46Z"/>
    <path class="unternet-wordmark-svg-pronunciation" d="M835.03 42.24c0-.58-.14-1-.43-1.26s-.67-.4-1.15-.4c-.31 0-.59.08-.83.21a1.49 1.49 0 0 0-.8 1.36l-.42-.08c0-.55.13-1.03.38-1.42a2.55 2.55 0 0 1 2.1-1.23c.47 0 .89.1 1.24.3.37.19.65.47.85.86.21.38.32.84.32 1.4v4.1h-1.26v-3.84Zm-4.47-2.66h1.26v6.5h-1.26v-6.5Z"/>
    <path class="unternet-wordmark-svg-pronunciation" d="M839.12 42.35H841v.96h-1.87v-.96Zm.6.74c-.67 0-1.2-.15-1.56-.44-.38-.3-.56-.71-.56-1.24 0-.4.1-.74.33-1.04.22-.3.52-.54.91-.7.4-.17.84-.25 1.35-.25.5 0 .96.1 1.35.28.4.18.71.43.95.75s.37.7.4 1.13h-1.3a1.1 1.1 0 0 0-.37-.83c-.24-.2-.56-.3-.97-.3-.42 0-.75.09-.99.27a.9.9 0 0 0-.35.76c0 .28.07.5.21.65a.8.8 0 0 0 .6.22v.74Zm0-.52v.74a1 1 0 0 0-.71.24c-.16.15-.24.37-.24.67 0 .3.12.54.37.71.25.17.6.26 1.04.26.43 0 .78-.1 1.04-.28a1 1 0 0 0 .43-.8h1.3c-.04.45-.18.83-.42 1.14-.25.31-.57.55-.98.72a4.04 4.04 0 0 1-2.78.01 2.13 2.13 0 0 1-.96-.67 1.6 1.6 0 0 1-.33-1c0-.36.1-.67.27-.93.18-.26.43-.46.76-.6.34-.14.74-.21 1.2-.21Z"/>
    <path class="unternet-wordmark-svg-pronunciation" d="M843.88 39.58h3.55v1.06h-3.54v-1.06Zm3.55 5.4v1.1h-.64a2.2 2.2 0 0 1-.88-.17 1.49 1.49 0 0 1-.65-.58c-.16-.27-.24-.6-.24-1.03v-6.4h1.25v6.23c0 .33.06.56.18.68.13.11.29.17.48.17h.5Z"/>
    <path class="unternet-wordmark-svg-pronunciation" d="M851.56 37.63h1.4l-3.3 8.46h-1.4l3.3-8.46Z"/>
  </g>
</svg>